G04 #@! TF.FileFunction,Copper,L2,Bot,Signal*
%FSLAX46Y46*%
G04 Gerber Fmt 4.6, Leading zero omitted, Abs format (unit mm)*
G04 Created by KiCad (PCBNEW (2016-11-25 revision 30df041)-makepkg) date 12/11/16 19:09:30*
%MOMM*%
%LPD*%
G01*
G04 APERTURE LIST*
%ADD10C,0.100000*%
%ADD11C,1.800000*%
%ADD12C,2.500000*%
%ADD13C,2.500000*%
%ADD14C,6.100000*%
%ADD15C,1.524000*%
%ADD16R,1.524000X1.524000*%
%ADD17R,1.250000X1.000000*%
%ADD18R,1.220000X0.910000*%
%ADD19O,1.100000X3.600000*%
%ADD20R,0.500000X1.400000*%
%ADD21C,0.400000*%
%ADD22C,0.400000*%
%ADD23O,3.800000X1.200000*%
%ADD24R,1.400000X1.100000*%
%ADD25R,1.100000X1.400000*%
%ADD26R,0.900000X1.000000*%
%ADD27R,0.900000X1.700000*%
%ADD28C,0.600000*%
%ADD29C,0.250000*%
%ADD30C,0.300000*%
G04 APERTURE END LIST*
D10*
D11*
X58420000Y-33655000D03*
X55880000Y-33655000D03*
D12*
X59670000Y-23785000D03*
D13*
X59689724Y-23495672D02*
X59650276Y-24074328D01*
D12*
X53745000Y-25305000D03*
D13*
X54150453Y-24575046D02*
X53339547Y-26034954D01*
D11*
X15557500Y-33655000D03*
X13017500Y-33655000D03*
D12*
X16807500Y-23785000D03*
D13*
X16827224Y-23495672D02*
X16787776Y-24074328D01*
D12*
X10882500Y-25305000D03*
D13*
X11287953Y-24575046D02*
X10477047Y-26034954D01*
D12*
X34695000Y-25305000D03*
D13*
X35100453Y-24575046D02*
X34289547Y-26034954D01*
D12*
X40620000Y-23785000D03*
D13*
X40639724Y-23495672D02*
X40600276Y-24074328D01*
D11*
X36830000Y-33655000D03*
X39370000Y-33655000D03*
D14*
X168700000Y-87000000D03*
X158100000Y-86350000D03*
X204800000Y-47650000D03*
D15*
X99750000Y-94800000D03*
X94850000Y-94800000D03*
X92400000Y-94800000D03*
D16*
X89950000Y-94800000D03*
D15*
X97300000Y-94800000D03*
X87500000Y-94800000D03*
D14*
X90500000Y-47700000D03*
D17*
X75000000Y-82500000D03*
X75000000Y-80500000D03*
X70000000Y-82500000D03*
X70000000Y-80500000D03*
D18*
X18350000Y-12635000D03*
X18350000Y-9365000D03*
X37350000Y-12635000D03*
X37350000Y-9365000D03*
X52324000Y-17637000D03*
X52324000Y-14367000D03*
X71900000Y-17585000D03*
X71900000Y-14315000D03*
X94350000Y-12635000D03*
X94350000Y-9365000D03*
X113350000Y-12635000D03*
X113350000Y-9365000D03*
X132350000Y-12635000D03*
X132350000Y-9365000D03*
X151350000Y-12635000D03*
X151350000Y-9365000D03*
X170350000Y-12635000D03*
X170350000Y-9365000D03*
X189350000Y-12635000D03*
X189350000Y-9365000D03*
X208350000Y-12635000D03*
X208350000Y-9365000D03*
X227350000Y-12635000D03*
X227350000Y-9365000D03*
X246350000Y-12635000D03*
X246350000Y-9365000D03*
X275350000Y-12635000D03*
X275350000Y-9365000D03*
X299000000Y-14800000D03*
X299000000Y-11530000D03*
X23000000Y-31635000D03*
X23000000Y-28365000D03*
X47000000Y-31635000D03*
X47000000Y-28365000D03*
X66000000Y-31635000D03*
X66000000Y-28365000D03*
X85000000Y-31635000D03*
X85000000Y-28365000D03*
X104000000Y-31635000D03*
X104000000Y-28365000D03*
X123000000Y-31635000D03*
X123000000Y-28365000D03*
X142000000Y-31635000D03*
X142000000Y-28365000D03*
X161000000Y-31635000D03*
X161000000Y-28365000D03*
X180000000Y-31635000D03*
X180000000Y-28365000D03*
X199000000Y-31635000D03*
X199000000Y-28365000D03*
X218000000Y-31635000D03*
X218000000Y-28365000D03*
X237000000Y-31635000D03*
X237000000Y-28365000D03*
X256000000Y-31635000D03*
X256000000Y-28365000D03*
X280000000Y-31635000D03*
X280000000Y-28365000D03*
X299200000Y-33635000D03*
X299200000Y-30365000D03*
X25500000Y-50635000D03*
X25500000Y-47365000D03*
X51500000Y-50635000D03*
X51500000Y-47365000D03*
X70500000Y-50635000D03*
X70500000Y-47365000D03*
X89500000Y-50635000D03*
X89500000Y-47365000D03*
X108500000Y-50635000D03*
X108500000Y-47365000D03*
X128000000Y-50635000D03*
X128000000Y-47365000D03*
X147000000Y-50635000D03*
X147000000Y-47365000D03*
X166000000Y-50635000D03*
X166000000Y-47365000D03*
X185000000Y-50635000D03*
X185000000Y-47365000D03*
X204000000Y-50635000D03*
X204000000Y-47365000D03*
X223000000Y-50635000D03*
X223000000Y-47365000D03*
X242500000Y-50635000D03*
X242500000Y-47365000D03*
X273500000Y-50635000D03*
X273500000Y-47365000D03*
D19*
X38650000Y1100000D03*
D20*
X33400000Y-1300000D03*
X34200000Y-1300000D03*
X35000000Y-1300000D03*
X35800000Y-1300000D03*
X36600000Y-1300000D03*
D19*
X31350000Y1100000D03*
D21*
X108873654Y-93283200D03*
D22*
X108237258Y-93919596D02*
X109510050Y-92646804D01*
D21*
X108307969Y-92717514D03*
D22*
X107671573Y-93353910D02*
X108944365Y-92081118D01*
D21*
X107742284Y-92151829D03*
D22*
X107105888Y-92788225D02*
X108378680Y-91515433D01*
D21*
X107176598Y-91586144D03*
D22*
X106540202Y-92222540D02*
X107812994Y-90949748D01*
D21*
X106610913Y-91020458D03*
D22*
X105974517Y-91656854D02*
X107247309Y-90384062D01*
D21*
X106045227Y-90454773D03*
D22*
X105408831Y-91091169D02*
X106681623Y-89818377D01*
D21*
X105479542Y-89889087D03*
D22*
X104843146Y-90525483D02*
X106115938Y-89252691D01*
D21*
X104913856Y-89323402D03*
D22*
X104277460Y-89959798D02*
X105550252Y-88687006D01*
D21*
X104348171Y-88757716D03*
D22*
X103711775Y-89394112D02*
X104984567Y-88121320D01*
D21*
X103782486Y-88192031D03*
D22*
X103146090Y-88828427D02*
X104418882Y-87555635D01*
D21*
X103216800Y-87626346D03*
D22*
X102580404Y-88262742D02*
X103853196Y-86989950D01*
D21*
X103216800Y-84373654D03*
D22*
X102580404Y-83737258D02*
X103853196Y-85010050D01*
D21*
X103782486Y-83807969D03*
D22*
X103146090Y-83171573D02*
X104418882Y-84444365D01*
D21*
X104348171Y-83242284D03*
D22*
X103711775Y-82605888D02*
X104984567Y-83878680D01*
D21*
X104913856Y-82676598D03*
D22*
X104277460Y-82040202D02*
X105550252Y-83312994D01*
D21*
X105479542Y-82110913D03*
D22*
X104843146Y-81474517D02*
X106115938Y-82747309D01*
D21*
X106045227Y-81545227D03*
D22*
X105408831Y-80908831D02*
X106681623Y-82181623D01*
D21*
X106610913Y-80979542D03*
D22*
X105974517Y-80343146D02*
X107247309Y-81615938D01*
D21*
X107176598Y-80413856D03*
D22*
X106540202Y-79777460D02*
X107812994Y-81050252D01*
D21*
X107742284Y-79848171D03*
D22*
X107105888Y-79211775D02*
X108378680Y-80484567D01*
D21*
X108307969Y-79282486D03*
D22*
X107671573Y-78646090D02*
X108944365Y-79918882D01*
D21*
X108873654Y-78716800D03*
D22*
X108237258Y-78080404D02*
X109510050Y-79353196D01*
D21*
X112126346Y-78716800D03*
D22*
X111489950Y-79353196D02*
X112762742Y-78080404D01*
D21*
X112692031Y-79282486D03*
D22*
X112055635Y-79918882D02*
X113328427Y-78646090D01*
D21*
X113257716Y-79848171D03*
D22*
X112621320Y-80484567D02*
X113894112Y-79211775D01*
D21*
X113823402Y-80413856D03*
D22*
X113187006Y-81050252D02*
X114459798Y-79777460D01*
D21*
X114389087Y-80979542D03*
D22*
X113752691Y-81615938D02*
X115025483Y-80343146D01*
D21*
X114954773Y-81545227D03*
D22*
X114318377Y-82181623D02*
X115591169Y-80908831D01*
D21*
X115520458Y-82110913D03*
D22*
X114884062Y-82747309D02*
X116156854Y-81474517D01*
D21*
X116086144Y-82676598D03*
D22*
X115449748Y-83312994D02*
X116722540Y-82040202D01*
D21*
X116651829Y-83242284D03*
D22*
X116015433Y-83878680D02*
X117288225Y-82605888D01*
D21*
X117217514Y-83807969D03*
D22*
X116581118Y-84444365D02*
X117853910Y-83171573D01*
D21*
X117783200Y-84373654D03*
D22*
X117146804Y-85010050D02*
X118419596Y-83737258D01*
D21*
X117783200Y-87626346D03*
D22*
X117146804Y-86989950D02*
X118419596Y-88262742D01*
D21*
X117217514Y-88192031D03*
D22*
X116581118Y-87555635D02*
X117853910Y-88828427D01*
D21*
X116651829Y-88757716D03*
D22*
X116015433Y-88121320D02*
X117288225Y-89394112D01*
D21*
X116086144Y-89323402D03*
D22*
X115449748Y-88687006D02*
X116722540Y-89959798D01*
D21*
X115520458Y-89889087D03*
D22*
X114884062Y-89252691D02*
X116156854Y-90525483D01*
D21*
X114954773Y-90454773D03*
D22*
X114318377Y-89818377D02*
X115591169Y-91091169D01*
D21*
X114389087Y-91020458D03*
D22*
X113752691Y-90384062D02*
X115025483Y-91656854D01*
D21*
X113823402Y-91586144D03*
D22*
X113187006Y-90949748D02*
X114459798Y-92222540D01*
D21*
X113257716Y-92151829D03*
D22*
X112621320Y-91515433D02*
X113894112Y-92788225D01*
D21*
X112692031Y-92717514D03*
D22*
X112055635Y-92081118D02*
X113328427Y-93353910D01*
D21*
X112126346Y-93283200D03*
D22*
X111489950Y-92646804D02*
X112762742Y-93919596D01*
D23*
X74900000Y-92500000D03*
X69100000Y-92500000D03*
D18*
X299200000Y-52635000D03*
X299200000Y-49365000D03*
X30500000Y-69635000D03*
X30500000Y-66365000D03*
X61500000Y-69635000D03*
X61500000Y-66365000D03*
X80500000Y-69635000D03*
X80500000Y-66365000D03*
X99500000Y-69635000D03*
X99500000Y-66365000D03*
X118500000Y-69635000D03*
X118500000Y-66365000D03*
X137500000Y-69635000D03*
X137500000Y-66365000D03*
X156500000Y-69635000D03*
X156500000Y-66365000D03*
X175500000Y-69635000D03*
X175500000Y-66365000D03*
X194500000Y-69635000D03*
X194500000Y-66365000D03*
X213500000Y-69635000D03*
X213500000Y-66365000D03*
X233000000Y-69635000D03*
X233000000Y-66365000D03*
X259000000Y-69635000D03*
X259000000Y-66365000D03*
X285000000Y-69635000D03*
X285000000Y-66365000D03*
X299200000Y-71835000D03*
X299200000Y-68565000D03*
X20500000Y-88635000D03*
X20500000Y-85365000D03*
X44500000Y-88635000D03*
X44500000Y-85365000D03*
X68500000Y-88635000D03*
X68500000Y-85365000D03*
X139500000Y-88635000D03*
X139500000Y-85365000D03*
X213500000Y-88635000D03*
X213500000Y-85365000D03*
X242000000Y-88635000D03*
X242000000Y-85365000D03*
X266000000Y-88635000D03*
X266000000Y-85365000D03*
X285000000Y-88635000D03*
X285000000Y-85365000D03*
X299000000Y-91035000D03*
X299000000Y-87765000D03*
D24*
X58296000Y-13475000D03*
X58296000Y-11725000D03*
X55696000Y-11725000D03*
X55696000Y-13475000D03*
D11*
X10795000Y-14605000D03*
X8255000Y-14605000D03*
D12*
X12045000Y-4735000D03*
D13*
X12064724Y-4445672D02*
X12025276Y-5024328D01*
D12*
X6120000Y-6255000D03*
D13*
X6525453Y-5525046D02*
X5714547Y-6984954D01*
D11*
X29845000Y-14605000D03*
X27305000Y-14605000D03*
D12*
X31095000Y-4735000D03*
D13*
X31114724Y-4445672D02*
X31075276Y-5024328D01*
D12*
X25170000Y-6255000D03*
D13*
X25575453Y-5525046D02*
X24764547Y-6984954D01*
D12*
X44220000Y-6255000D03*
D13*
X44625453Y-5525046D02*
X43814547Y-6984954D01*
D12*
X50145000Y-4735000D03*
D13*
X50164724Y-4445672D02*
X50125276Y-5024328D01*
D11*
X46355000Y-14605000D03*
X48895000Y-14605000D03*
X67945000Y-14605000D03*
X65405000Y-14605000D03*
D12*
X69195000Y-4735000D03*
D13*
X69214724Y-4445672D02*
X69175276Y-5024328D01*
D12*
X63270000Y-6255000D03*
D13*
X63675453Y-5525046D02*
X62864547Y-6984954D01*
D12*
X82320000Y-6255000D03*
D13*
X82725453Y-5525046D02*
X81914547Y-6984954D01*
D12*
X88245000Y-4735000D03*
D13*
X88264724Y-4445672D02*
X88225276Y-5024328D01*
D11*
X84455000Y-14605000D03*
X86995000Y-14605000D03*
X106045000Y-14605000D03*
X103505000Y-14605000D03*
D12*
X107295000Y-4735000D03*
D13*
X107314724Y-4445672D02*
X107275276Y-5024328D01*
D12*
X101370000Y-6255000D03*
D13*
X101775453Y-5525046D02*
X100964547Y-6984954D01*
D12*
X120420000Y-6255000D03*
D13*
X120825453Y-5525046D02*
X120014547Y-6984954D01*
D12*
X126345000Y-4735000D03*
D13*
X126364724Y-4445672D02*
X126325276Y-5024328D01*
D11*
X122555000Y-14605000D03*
X125095000Y-14605000D03*
X144145000Y-14605000D03*
X141605000Y-14605000D03*
D12*
X145395000Y-4735000D03*
D13*
X145414724Y-4445672D02*
X145375276Y-5024328D01*
D12*
X139470000Y-6255000D03*
D13*
X139875453Y-5525046D02*
X139064547Y-6984954D01*
D12*
X158520000Y-6255000D03*
D13*
X158925453Y-5525046D02*
X158114547Y-6984954D01*
D12*
X164445000Y-4735000D03*
D13*
X164464724Y-4445672D02*
X164425276Y-5024328D01*
D11*
X160655000Y-14605000D03*
X163195000Y-14605000D03*
D12*
X177570000Y-6255000D03*
D13*
X177975453Y-5525046D02*
X177164547Y-6984954D01*
D12*
X183495000Y-4735000D03*
D13*
X183514724Y-4445672D02*
X183475276Y-5024328D01*
D11*
X179705000Y-14605000D03*
X182245000Y-14605000D03*
D12*
X196620000Y-6255000D03*
D13*
X197025453Y-5525046D02*
X196214547Y-6984954D01*
D12*
X202545000Y-4735000D03*
D13*
X202564724Y-4445672D02*
X202525276Y-5024328D01*
D11*
X198755000Y-14605000D03*
X201295000Y-14605000D03*
X220345000Y-14605000D03*
X217805000Y-14605000D03*
D12*
X221595000Y-4735000D03*
D13*
X221614724Y-4445672D02*
X221575276Y-5024328D01*
D12*
X215670000Y-6255000D03*
D13*
X216075453Y-5525046D02*
X215264547Y-6984954D01*
D12*
X234720000Y-6255000D03*
D13*
X235125453Y-5525046D02*
X234314547Y-6984954D01*
D12*
X240645000Y-4735000D03*
D13*
X240664724Y-4445672D02*
X240625276Y-5024328D01*
D11*
X236855000Y-14605000D03*
X239395000Y-14605000D03*
D12*
X263295000Y-6255000D03*
D13*
X263700453Y-5525046D02*
X262889547Y-6984954D01*
D12*
X269220000Y-4735000D03*
D13*
X269239724Y-4445672D02*
X269200276Y-5024328D01*
D11*
X265430000Y-14605000D03*
X267970000Y-14605000D03*
X296545000Y-14605000D03*
X294005000Y-14605000D03*
D12*
X297795000Y-4735000D03*
D13*
X297814724Y-4445672D02*
X297775276Y-5024328D01*
D12*
X291870000Y-6255000D03*
D13*
X292275453Y-5525046D02*
X291464547Y-6984954D01*
D25*
X14125000Y-16750000D03*
X15875000Y-16750000D03*
X34875000Y-16750000D03*
X33125000Y-16750000D03*
X47625000Y-20000000D03*
X49375000Y-20000000D03*
X67875000Y-20000000D03*
X66125000Y-20000000D03*
X90125000Y-16000000D03*
X91875000Y-16000000D03*
X110375000Y-16000000D03*
X108625000Y-16000000D03*
X128125000Y-16000000D03*
X129875000Y-16000000D03*
X147125000Y-16000000D03*
X148875000Y-16000000D03*
X167875000Y-16000000D03*
X166125000Y-16000000D03*
X186875000Y-16000000D03*
X185125000Y-16000000D03*
X205875000Y-16000000D03*
X204125000Y-16000000D03*
X223875000Y-16000000D03*
X225625000Y-16000000D03*
X244000000Y-16000000D03*
X242250000Y-16000000D03*
X272875000Y-16000000D03*
X271125000Y-16000000D03*
X298425000Y-16800000D03*
X300175000Y-16800000D03*
D12*
X72795000Y-25305000D03*
D13*
X73200453Y-24575046D02*
X72389547Y-26034954D01*
D12*
X78720000Y-23785000D03*
D13*
X78739724Y-23495672D02*
X78700276Y-24074328D01*
D11*
X74930000Y-33655000D03*
X77470000Y-33655000D03*
X96520000Y-33655000D03*
X93980000Y-33655000D03*
D12*
X97770000Y-23785000D03*
D13*
X97789724Y-23495672D02*
X97750276Y-24074328D01*
D12*
X91845000Y-25305000D03*
D13*
X92250453Y-24575046D02*
X91439547Y-26034954D01*
D12*
X110895000Y-25305000D03*
D13*
X111300453Y-24575046D02*
X110489547Y-26034954D01*
D12*
X116820000Y-23785000D03*
D13*
X116839724Y-23495672D02*
X116800276Y-24074328D01*
D11*
X113030000Y-33655000D03*
X115570000Y-33655000D03*
X134620000Y-33655000D03*
X132080000Y-33655000D03*
D12*
X135870000Y-23785000D03*
D13*
X135889724Y-23495672D02*
X135850276Y-24074328D01*
D12*
X129945000Y-25305000D03*
D13*
X130350453Y-24575046D02*
X129539547Y-26034954D01*
D12*
X148995000Y-25305000D03*
D13*
X149400453Y-24575046D02*
X148589547Y-26034954D01*
D12*
X154920000Y-23785000D03*
D13*
X154939724Y-23495672D02*
X154900276Y-24074328D01*
D11*
X151130000Y-33655000D03*
X153670000Y-33655000D03*
D12*
X168045000Y-25305000D03*
D13*
X168450453Y-24575046D02*
X167639547Y-26034954D01*
D12*
X173970000Y-23785000D03*
D13*
X173989724Y-23495672D02*
X173950276Y-24074328D01*
D11*
X170180000Y-33655000D03*
X172720000Y-33655000D03*
D12*
X187095000Y-25305000D03*
D13*
X187500453Y-24575046D02*
X186689547Y-26034954D01*
D12*
X193020000Y-23785000D03*
D13*
X193039724Y-23495672D02*
X193000276Y-24074328D01*
D11*
X189230000Y-33655000D03*
X191770000Y-33655000D03*
D12*
X206145000Y-25305000D03*
D13*
X206550453Y-24575046D02*
X205739547Y-26034954D01*
D12*
X212070000Y-23785000D03*
D13*
X212089724Y-23495672D02*
X212050276Y-24074328D01*
D11*
X208280000Y-33655000D03*
X210820000Y-33655000D03*
X229870000Y-33655000D03*
X227330000Y-33655000D03*
D12*
X231120000Y-23785000D03*
D13*
X231139724Y-23495672D02*
X231100276Y-24074328D01*
D12*
X225195000Y-25305000D03*
D13*
X225600453Y-24575046D02*
X224789547Y-26034954D01*
D11*
X248920000Y-33655000D03*
X246380000Y-33655000D03*
D12*
X250170000Y-23785000D03*
D13*
X250189724Y-23495672D02*
X250150276Y-24074328D01*
D12*
X244245000Y-25305000D03*
D13*
X244650453Y-24575046D02*
X243839547Y-26034954D01*
D12*
X268057500Y-25305000D03*
D13*
X268462953Y-24575046D02*
X267652047Y-26034954D01*
D12*
X273982500Y-23785000D03*
D13*
X274002224Y-23495672D02*
X273962776Y-24074328D01*
D11*
X270192500Y-33655000D03*
X272732500Y-33655000D03*
X296545000Y-33655000D03*
X294005000Y-33655000D03*
D12*
X297795000Y-23785000D03*
D13*
X297814724Y-23495672D02*
X297775276Y-24074328D01*
D12*
X291870000Y-25305000D03*
D13*
X292275453Y-24575046D02*
X291464547Y-26034954D01*
D25*
X18875000Y-35500000D03*
X20625000Y-35500000D03*
X42625000Y-35750000D03*
X44375000Y-35750000D03*
X61875000Y-35750000D03*
X63625000Y-35750000D03*
X82375000Y-34500000D03*
X80625000Y-34500000D03*
X99875000Y-35000000D03*
X101625000Y-35000000D03*
X120625000Y-35000000D03*
X118875000Y-35000000D03*
X137625000Y-35000000D03*
X139375000Y-35000000D03*
X158375000Y-35000000D03*
X156625000Y-35000000D03*
X176125000Y-35000000D03*
X177875000Y-35000000D03*
X196875000Y-35000000D03*
X195125000Y-35000000D03*
X214125000Y-35000000D03*
X215875000Y-35000000D03*
X234875000Y-35000000D03*
X233125000Y-35000000D03*
X251625000Y-35000000D03*
X253375000Y-35000000D03*
X277875000Y-35000000D03*
X276125000Y-35000000D03*
X298625000Y-35500000D03*
X300375000Y-35500000D03*
D11*
X17938750Y-52705000D03*
X15398750Y-52705000D03*
D12*
X19188750Y-42835000D03*
D13*
X19208474Y-42545672D02*
X19169026Y-43124328D01*
D12*
X13263750Y-44355000D03*
D13*
X13669203Y-43625046D02*
X12858297Y-45084954D01*
D12*
X39457400Y-44355000D03*
D13*
X39862853Y-43625046D02*
X39051947Y-45084954D01*
D12*
X45382400Y-42835000D03*
D13*
X45402124Y-42545672D02*
X45362676Y-43124328D01*
D11*
X41592400Y-52705000D03*
X44132400Y-52705000D03*
X63182400Y-52705000D03*
X60642400Y-52705000D03*
D12*
X64432400Y-42835000D03*
D13*
X64452124Y-42545672D02*
X64412676Y-43124328D01*
D12*
X58507400Y-44355000D03*
D13*
X58912853Y-43625046D02*
X58101947Y-45084954D01*
D12*
X77557400Y-44355000D03*
D13*
X77962853Y-43625046D02*
X77151947Y-45084954D01*
D12*
X83482400Y-42835000D03*
D13*
X83502124Y-42545672D02*
X83462676Y-43124328D01*
D11*
X79692400Y-52705000D03*
X82232400Y-52705000D03*
D12*
X96607400Y-44355000D03*
D13*
X97012853Y-43625046D02*
X96201947Y-45084954D01*
D12*
X102532400Y-42835000D03*
D13*
X102552124Y-42545672D02*
X102512676Y-43124328D01*
D11*
X98742400Y-52705000D03*
X101282400Y-52705000D03*
X120332400Y-52705000D03*
X117792400Y-52705000D03*
D12*
X121582400Y-42835000D03*
D13*
X121602124Y-42545672D02*
X121562676Y-43124328D01*
D12*
X115657400Y-44355000D03*
D13*
X116062853Y-43625046D02*
X115251947Y-45084954D01*
D12*
X134707400Y-44355000D03*
D13*
X135112853Y-43625046D02*
X134301947Y-45084954D01*
D12*
X140632400Y-42835000D03*
D13*
X140652124Y-42545672D02*
X140612676Y-43124328D01*
D11*
X136842400Y-52705000D03*
X139382400Y-52705000D03*
X158432400Y-52705000D03*
X155892400Y-52705000D03*
D12*
X159682400Y-42835000D03*
D13*
X159702124Y-42545672D02*
X159662676Y-43124328D01*
D12*
X153757400Y-44355000D03*
D13*
X154162853Y-43625046D02*
X153351947Y-45084954D01*
D12*
X172807400Y-44355000D03*
D13*
X173212853Y-43625046D02*
X172401947Y-45084954D01*
D12*
X178732400Y-42835000D03*
D13*
X178752124Y-42545672D02*
X178712676Y-43124328D01*
D11*
X174942400Y-52705000D03*
X177482400Y-52705000D03*
X196532400Y-52705000D03*
X193992400Y-52705000D03*
D12*
X197782400Y-42835000D03*
D13*
X197802124Y-42545672D02*
X197762676Y-43124328D01*
D12*
X191857400Y-44355000D03*
D13*
X192262853Y-43625046D02*
X191451947Y-45084954D01*
D12*
X210907400Y-44355000D03*
D13*
X211312853Y-43625046D02*
X210501947Y-45084954D01*
D12*
X216832400Y-42835000D03*
D13*
X216852124Y-42545672D02*
X216812676Y-43124328D01*
D11*
X213042400Y-52705000D03*
X215582400Y-52705000D03*
X234632400Y-52705000D03*
X232092400Y-52705000D03*
D12*
X235882400Y-42835000D03*
D13*
X235902124Y-42545672D02*
X235862676Y-43124328D01*
D12*
X229957400Y-44355000D03*
D13*
X230362853Y-43625046D02*
X229551947Y-45084954D01*
D11*
X265588650Y-52705000D03*
X263048650Y-52705000D03*
D12*
X266838650Y-42835000D03*
D13*
X266858374Y-42545672D02*
X266818926Y-43124328D01*
D12*
X260913650Y-44355000D03*
D13*
X261319103Y-43625046D02*
X260508197Y-45084954D01*
D11*
X296545000Y-52705000D03*
X294005000Y-52705000D03*
D12*
X297795000Y-42835000D03*
D13*
X297814724Y-42545672D02*
X297775276Y-43124328D01*
D12*
X291870000Y-44355000D03*
D13*
X292275453Y-43625046D02*
X291464547Y-45084954D01*
D25*
X22375000Y-54500000D03*
X20625000Y-54500000D03*
X47125000Y-54500000D03*
X48875000Y-54500000D03*
X67875000Y-54500000D03*
X66125000Y-54500000D03*
X85125000Y-54500000D03*
X86875000Y-54500000D03*
X105875000Y-54500000D03*
X104125000Y-54500000D03*
X124875000Y-54500000D03*
X123125000Y-54500000D03*
X142375000Y-54500000D03*
X144125000Y-54500000D03*
X161625000Y-54500000D03*
X163375000Y-54500000D03*
X182125000Y-54500000D03*
X180375000Y-54500000D03*
X199625000Y-54250000D03*
X201375000Y-54250000D03*
X220375000Y-54500000D03*
X218625000Y-54500000D03*
X237625000Y-54500000D03*
X239375000Y-54500000D03*
X269875000Y-54500000D03*
X268125000Y-54500000D03*
X298625000Y-54500000D03*
X300375000Y-54500000D03*
D12*
X18026250Y-63405000D03*
D13*
X18431703Y-62675046D02*
X17620797Y-64134954D01*
D12*
X23951250Y-61885000D03*
D13*
X23970974Y-61595672D02*
X23931526Y-62174328D01*
D11*
X20161250Y-71755000D03*
X22701250Y-71755000D03*
X53657500Y-71755000D03*
X51117500Y-71755000D03*
D12*
X54907500Y-61885000D03*
D13*
X54927224Y-61595672D02*
X54887776Y-62174328D01*
D12*
X48982500Y-63405000D03*
D13*
X49387953Y-62675046D02*
X48577047Y-64134954D01*
D12*
X68032500Y-63405000D03*
D13*
X68437953Y-62675046D02*
X67627047Y-64134954D01*
D12*
X73957500Y-61885000D03*
D13*
X73977224Y-61595672D02*
X73937776Y-62174328D01*
D11*
X70167500Y-71755000D03*
X72707500Y-71755000D03*
X91757500Y-71755000D03*
X89217500Y-71755000D03*
D12*
X93007500Y-61885000D03*
D13*
X93027224Y-61595672D02*
X92987776Y-62174328D01*
D12*
X87082500Y-63405000D03*
D13*
X87487953Y-62675046D02*
X86677047Y-64134954D01*
D12*
X106132500Y-63405000D03*
D13*
X106537953Y-62675046D02*
X105727047Y-64134954D01*
D12*
X112057500Y-61885000D03*
D13*
X112077224Y-61595672D02*
X112037776Y-62174328D01*
D11*
X108267500Y-71755000D03*
X110807500Y-71755000D03*
X129857500Y-71755000D03*
X127317500Y-71755000D03*
D12*
X131107500Y-61885000D03*
D13*
X131127224Y-61595672D02*
X131087776Y-62174328D01*
D12*
X125182500Y-63405000D03*
D13*
X125587953Y-62675046D02*
X124777047Y-64134954D01*
D12*
X144232500Y-63405000D03*
D13*
X144637953Y-62675046D02*
X143827047Y-64134954D01*
D12*
X150157500Y-61885000D03*
D13*
X150177224Y-61595672D02*
X150137776Y-62174328D01*
D11*
X146367500Y-71755000D03*
X148907500Y-71755000D03*
X167957500Y-71755000D03*
X165417500Y-71755000D03*
D12*
X169207500Y-61885000D03*
D13*
X169227224Y-61595672D02*
X169187776Y-62174328D01*
D12*
X163282500Y-63405000D03*
D13*
X163687953Y-62675046D02*
X162877047Y-64134954D01*
D12*
X182332500Y-63405000D03*
D13*
X182737953Y-62675046D02*
X181927047Y-64134954D01*
D12*
X188257500Y-61885000D03*
D13*
X188277224Y-61595672D02*
X188237776Y-62174328D01*
D11*
X184467500Y-71755000D03*
X187007500Y-71755000D03*
X206057500Y-71755000D03*
X203517500Y-71755000D03*
D12*
X207307500Y-61885000D03*
D13*
X207327224Y-61595672D02*
X207287776Y-62174328D01*
D12*
X201382500Y-63405000D03*
D13*
X201787953Y-62675046D02*
X200977047Y-64134954D01*
D12*
X220432500Y-63405000D03*
D13*
X220837953Y-62675046D02*
X220027047Y-64134954D01*
D12*
X226357500Y-61885000D03*
D13*
X226377224Y-61595672D02*
X226337776Y-62174328D01*
D11*
X222567500Y-71755000D03*
X225107500Y-71755000D03*
D12*
X246626250Y-63405000D03*
D13*
X247031703Y-62675046D02*
X246220797Y-64134954D01*
D12*
X252551250Y-61885000D03*
D13*
X252570974Y-61595672D02*
X252531526Y-62174328D01*
D11*
X248761250Y-71755000D03*
X251301250Y-71755000D03*
X277495000Y-71755000D03*
X274955000Y-71755000D03*
D12*
X278745000Y-61885000D03*
D13*
X278764724Y-61595672D02*
X278725276Y-62174328D01*
D12*
X272820000Y-63405000D03*
D13*
X273225453Y-62675046D02*
X272414547Y-64134954D01*
D12*
X291870000Y-63405000D03*
D13*
X292275453Y-62675046D02*
X291464547Y-64134954D01*
D12*
X297795000Y-61885000D03*
D13*
X297814724Y-61595672D02*
X297775276Y-62174328D01*
D11*
X294005000Y-71755000D03*
X296545000Y-71755000D03*
D25*
X25625000Y-74000000D03*
X27375000Y-74000000D03*
X58375000Y-73000000D03*
X56625000Y-73000000D03*
X75625000Y-73000000D03*
X77375000Y-73000000D03*
X96875000Y-73000000D03*
X95125000Y-73000000D03*
X114125000Y-73500000D03*
X115875000Y-73500000D03*
X134375000Y-73500000D03*
X132625000Y-73500000D03*
X151625000Y-73500000D03*
X153375000Y-73500000D03*
X172875000Y-73500000D03*
X171125000Y-73500000D03*
X190125000Y-73500000D03*
X191875000Y-73500000D03*
X210875000Y-73500000D03*
X209125000Y-73500000D03*
X228125000Y-73500000D03*
X229875000Y-73500000D03*
X254625000Y-73500000D03*
X256375000Y-73500000D03*
X280625000Y-73000000D03*
X282375000Y-73000000D03*
X300175000Y-73800000D03*
X298425000Y-73800000D03*
D26*
X141800000Y-79250000D03*
X143700000Y-79250000D03*
X142750000Y-81250000D03*
D11*
X13176250Y-90805000D03*
X10636250Y-90805000D03*
D12*
X14426250Y-80935000D03*
D13*
X14445974Y-80645672D02*
X14406526Y-81224328D01*
D12*
X8501250Y-82455000D03*
D13*
X8906703Y-81725046D02*
X8095797Y-83184954D01*
D12*
X32313750Y-82455000D03*
D13*
X32719203Y-81725046D02*
X31908297Y-83184954D01*
D12*
X38238750Y-80935000D03*
D13*
X38258474Y-80645672D02*
X38219026Y-81224328D01*
D11*
X34448750Y-90805000D03*
X36988750Y-90805000D03*
D12*
X56126250Y-82455000D03*
D13*
X56531703Y-81725046D02*
X55720797Y-83184954D01*
D12*
X62051250Y-80935000D03*
D13*
X62070974Y-80645672D02*
X62031526Y-81224328D01*
D11*
X58261250Y-90805000D03*
X60801250Y-90805000D03*
D12*
X127563750Y-82455000D03*
D13*
X127969203Y-81725046D02*
X127158297Y-83184954D01*
D12*
X133488750Y-80935000D03*
D13*
X133508474Y-80645672D02*
X133469026Y-81224328D01*
D11*
X129698750Y-90805000D03*
X132238750Y-90805000D03*
X206057500Y-90805000D03*
X203517500Y-90805000D03*
D12*
X207307500Y-80935000D03*
D13*
X207327224Y-80645672D02*
X207287776Y-81224328D01*
D12*
X201382500Y-82455000D03*
D13*
X201787953Y-81725046D02*
X200977047Y-83184954D01*
D12*
X253770000Y-82455000D03*
D13*
X254175453Y-81725046D02*
X253364547Y-83184954D01*
D12*
X259695000Y-80935000D03*
D13*
X259714724Y-80645672D02*
X259675276Y-81224328D01*
D11*
X255905000Y-90805000D03*
X258445000Y-90805000D03*
X277495000Y-90805000D03*
X274955000Y-90805000D03*
D12*
X278745000Y-80935000D03*
D13*
X278764724Y-80645672D02*
X278725276Y-81224328D01*
D12*
X272820000Y-82455000D03*
D13*
X273225453Y-81725046D02*
X272414547Y-83184954D01*
D25*
X41875000Y-93000000D03*
X40125000Y-93000000D03*
X63125000Y-93000000D03*
X64875000Y-93000000D03*
X136875000Y-91000000D03*
X135125000Y-91000000D03*
X210875000Y-92000000D03*
X209125000Y-92000000D03*
X238125000Y-92500000D03*
X239875000Y-92500000D03*
X263375000Y-92000000D03*
X261625000Y-92000000D03*
X280625000Y-92000000D03*
X282375000Y-92000000D03*
X300175000Y-93000000D03*
X298425000Y-93000000D03*
D27*
X33700000Y-44000000D03*
X30300000Y-44000000D03*
D12*
X215670000Y-82455000D03*
D13*
X216075453Y-81725046D02*
X215264547Y-83184954D01*
D12*
X221595000Y-80935000D03*
D13*
X221614724Y-80645672D02*
X221575276Y-81224328D01*
D11*
X217805000Y-90805000D03*
X220345000Y-90805000D03*
D12*
X229957500Y-82455000D03*
D13*
X230362953Y-81725046D02*
X229552047Y-83184954D01*
D12*
X235882500Y-80935000D03*
D13*
X235902224Y-80645672D02*
X235862776Y-81224328D01*
D11*
X232092500Y-90805000D03*
X234632500Y-90805000D03*
D12*
X291870000Y-82455000D03*
D13*
X292275453Y-81725046D02*
X291464547Y-83184954D01*
D12*
X297795000Y-80935000D03*
D13*
X297814724Y-80645672D02*
X297775276Y-81224328D01*
D11*
X294005000Y-90805000D03*
X296545000Y-90805000D03*
D12*
X196620000Y-82455000D03*
D13*
X197025453Y-81725046D02*
X196214547Y-83184954D01*
D12*
X202545000Y-80935000D03*
D13*
X202564724Y-80645672D02*
X202525276Y-81224328D01*
D11*
X198755000Y-90805000D03*
X201295000Y-90805000D03*
X239395000Y-90805000D03*
X236855000Y-90805000D03*
D12*
X240645000Y-80935000D03*
D13*
X240664724Y-80645672D02*
X240625276Y-81224328D01*
D12*
X234720000Y-82455000D03*
D13*
X235125453Y-81725046D02*
X234314547Y-83184954D01*
D28*
X109500000Y-78100000D03*
X86650000Y-76200000D03*
X105800000Y-77900000D03*
X110000000Y-31500000D03*
X106000000Y-31500000D03*
X115500000Y-50500000D03*
X110500000Y-50500000D03*
X134620000Y-69850000D03*
X120650000Y-69850000D03*
X85450000Y-74850000D03*
X86100000Y-75500000D03*
X106800000Y-77800000D03*
X115500000Y-77600000D03*
X115900000Y-78400000D03*
X116300000Y-79200000D03*
X45750000Y-19500000D03*
X44000000Y-17000000D03*
X124000000Y-74000000D03*
X117500000Y-74000000D03*
X84750000Y-74000000D03*
X82250000Y-74000000D03*
X113500000Y-55500000D03*
X107500000Y-55500000D03*
X108000000Y-36250000D03*
X103000000Y-36250000D03*
X96500000Y-16750000D03*
X94000000Y-16750000D03*
X170000000Y-91500000D03*
X194750000Y-91500000D03*
D29*
X122820019Y-78205464D02*
X122820019Y-69477199D01*
X122820019Y-69477199D02*
X121550020Y-68207200D01*
X121550020Y-68207200D02*
X121550019Y-65667199D01*
X121550019Y-65667199D02*
X112000000Y-56117180D01*
X112000000Y-56117180D02*
X112000000Y-48000000D01*
X112000000Y-48000000D02*
X107000000Y-43000000D01*
X107000000Y-43000000D02*
X107000000Y-28500000D01*
X107000000Y-28500000D02*
X94350000Y-15850000D01*
X122370010Y-77524103D02*
X117500356Y-82393757D01*
X121100010Y-68393600D02*
X122370010Y-69663600D01*
X121100010Y-65853600D02*
X121100010Y-68393600D01*
X122370010Y-69663600D02*
X122370010Y-77524103D01*
X57396000Y-5550000D02*
X57396000Y-4600000D01*
X97300000Y-94800000D02*
X100934593Y-91165407D01*
X100934593Y-91165407D02*
X104203222Y-91165407D01*
X104203222Y-91165407D02*
X106328069Y-89040560D01*
X111500000Y-86777819D02*
X116934673Y-86777819D01*
X107883706Y-86777819D02*
X111500000Y-86777819D01*
X111500000Y-86777819D02*
X111500000Y-90394113D01*
X111500000Y-90394113D02*
X113257716Y-92151829D01*
X116934673Y-86777819D02*
X117783200Y-87626346D01*
X107883706Y-86777819D02*
X107883706Y-84090811D01*
X107883706Y-84090811D02*
X112692031Y-79282486D01*
X107883706Y-89040560D02*
X107883706Y-86777819D01*
X107883706Y-86777819D02*
X104348171Y-83242284D01*
X110712133Y-91868987D02*
X107883706Y-89040560D01*
X107883706Y-89040560D02*
X106328069Y-89040560D01*
X106328069Y-89040560D02*
X105479542Y-89889087D01*
X108307969Y-92717514D02*
X109156496Y-91868987D01*
X109156496Y-91868987D02*
X110712133Y-91868987D01*
X110712133Y-91868987D02*
X111277819Y-92434673D01*
X111277819Y-92434673D02*
X112126346Y-93283200D01*
X99750000Y-94800000D02*
X102934583Y-91615417D01*
X102934583Y-91615417D02*
X106015954Y-91615417D01*
X106015954Y-91615417D02*
X107631371Y-90000000D01*
X112126346Y-78716800D02*
X107318021Y-83525125D01*
X107318021Y-83525125D02*
X105762383Y-83525125D01*
X105762383Y-83525125D02*
X104913856Y-82676598D01*
X116368987Y-87343504D02*
X117217514Y-88192031D01*
X106610913Y-91020458D02*
X107631371Y-90000000D01*
X109500000Y-78100000D02*
X109490454Y-78100000D01*
X109490454Y-78100000D02*
X108873654Y-78716800D01*
X95043146Y-76200000D02*
X86650000Y-76200000D01*
X95043146Y-76200000D02*
X103216800Y-84373654D01*
X105800000Y-77900000D02*
X107742284Y-79842284D01*
X107742284Y-79842284D02*
X107742284Y-79848171D01*
X95192370Y-86030000D02*
X103575722Y-86030000D01*
X103575722Y-86030000D02*
X104631013Y-84974709D01*
X104631013Y-84974709D02*
X104631013Y-84656496D01*
X104631013Y-84656496D02*
X103782486Y-83807969D01*
X87500000Y-94800000D02*
X87500000Y-93722370D01*
X87500000Y-93722370D02*
X95192370Y-86030000D01*
X58296000Y-11650000D02*
X58296000Y-11050000D01*
X58296000Y-11050000D02*
X57396000Y-10150000D01*
X52324000Y-17637000D02*
X71848000Y-17637000D01*
X71848000Y-17637000D02*
X71900000Y-17585000D01*
X71835000Y-17650000D02*
X71900000Y-17585000D01*
X299000000Y-14800000D02*
X299000000Y-14095000D01*
X299000000Y-14095000D02*
X297540000Y-12635000D01*
X297540000Y-12635000D02*
X276210000Y-12635000D01*
X276210000Y-12635000D02*
X275350000Y-12635000D01*
X94350000Y-12635000D02*
X80518000Y-12635000D01*
X72760000Y-17585000D02*
X77710000Y-12635000D01*
X71900000Y-17585000D02*
X72760000Y-17585000D01*
X77710000Y-12635000D02*
X80518000Y-12635000D01*
X37350000Y-12635000D02*
X38210000Y-12635000D01*
X51464000Y-17637000D02*
X52324000Y-17637000D01*
X38210000Y-12635000D02*
X43212000Y-17637000D01*
X43212000Y-17637000D02*
X51464000Y-17637000D01*
X37350000Y-12635000D02*
X18350000Y-12635000D01*
X113350000Y-12635000D02*
X94350000Y-12635000D01*
X132350000Y-12635000D02*
X113350000Y-12635000D01*
X151350000Y-12635000D02*
X132350000Y-12635000D01*
X170350000Y-12635000D02*
X151350000Y-12635000D01*
X189350000Y-12635000D02*
X170350000Y-12635000D01*
X208350000Y-12635000D02*
X189350000Y-12635000D01*
X227350000Y-12635000D02*
X208350000Y-12635000D01*
X246350000Y-12635000D02*
X227350000Y-12635000D01*
X275350000Y-12635000D02*
X246350000Y-12635000D01*
X12045000Y-4735000D02*
X14425000Y-4735000D01*
X14425000Y-4735000D02*
X18350000Y-8660000D01*
X18350000Y-8660000D02*
X18350000Y-9365000D01*
X31095000Y-4735000D02*
X33425000Y-4735000D01*
X33425000Y-4735000D02*
X37350000Y-8660000D01*
X37350000Y-8660000D02*
X37350000Y-9365000D01*
X69800000Y-8000000D02*
X69800000Y-11510000D01*
X69800000Y-11510000D02*
X71900000Y-13610000D01*
X71900000Y-13610000D02*
X71900000Y-14315000D01*
X69195000Y-7395000D02*
X69800000Y-8000000D01*
X69195000Y-4735000D02*
X69195000Y-7395000D01*
X88245000Y-4735000D02*
X90425000Y-4735000D01*
X90425000Y-4735000D02*
X94350000Y-8660000D01*
X94350000Y-8660000D02*
X94350000Y-9365000D01*
X107295000Y-4735000D02*
X109425000Y-4735000D01*
X109425000Y-4735000D02*
X113350000Y-8660000D01*
X113350000Y-8660000D02*
X113350000Y-9365000D01*
X126345000Y-4735000D02*
X128425000Y-4735000D01*
X128425000Y-4735000D02*
X132350000Y-8660000D01*
X132350000Y-8660000D02*
X132350000Y-9365000D01*
X147735000Y-4735000D02*
X151350000Y-8350000D01*
X151350000Y-8350000D02*
X151350000Y-9365000D01*
X145395000Y-4735000D02*
X147735000Y-4735000D01*
X166735000Y-4735000D02*
X170350000Y-8350000D01*
X170350000Y-8350000D02*
X170350000Y-9365000D01*
X164445000Y-4735000D02*
X166735000Y-4735000D01*
X185735000Y-4735000D02*
X189350000Y-8350000D01*
X189350000Y-8350000D02*
X189350000Y-9365000D01*
X183495000Y-4735000D02*
X185735000Y-4735000D01*
X204735000Y-4735000D02*
X208350000Y-8350000D01*
X208350000Y-8350000D02*
X208350000Y-9365000D01*
X202545000Y-4735000D02*
X204735000Y-4735000D01*
X223735000Y-4735000D02*
X227350000Y-8350000D01*
X227350000Y-8350000D02*
X227350000Y-9365000D01*
X221595000Y-4735000D02*
X223735000Y-4735000D01*
X66000000Y-31635000D02*
X66860000Y-31635000D01*
X66860000Y-31635000D02*
X85000000Y-31635000D01*
X299200000Y-33635000D02*
X298340000Y-33635000D01*
X296340000Y-31635000D02*
X280860000Y-31635000D01*
X298340000Y-33635000D02*
X296340000Y-31635000D01*
X280860000Y-31635000D02*
X280000000Y-31635000D01*
X84985000Y-31650000D02*
X85000000Y-31635000D01*
X104000000Y-31635000D02*
X104000000Y-41000000D01*
X104000000Y-41000000D02*
X111500000Y-48500000D01*
X111500000Y-48500000D02*
X111500000Y-56253590D01*
X104000000Y-31635000D02*
X105865000Y-31635000D01*
X110135000Y-31635000D02*
X123000000Y-31635000D01*
X110000000Y-31500000D02*
X110135000Y-31635000D01*
X105865000Y-31635000D02*
X106000000Y-31500000D01*
X23000000Y-31635000D02*
X47000000Y-31635000D01*
X47000000Y-31635000D02*
X66000000Y-31635000D01*
X85000000Y-31635000D02*
X104000000Y-31635000D01*
X123000000Y-31635000D02*
X142000000Y-31635000D01*
X142000000Y-31635000D02*
X161000000Y-31635000D01*
X161000000Y-31635000D02*
X180000000Y-31635000D01*
X180000000Y-31635000D02*
X199000000Y-31635000D01*
X218000000Y-31635000D02*
X217140000Y-31635000D01*
X217140000Y-31635000D02*
X199000000Y-31635000D01*
X237000000Y-31635000D02*
X218000000Y-31635000D01*
X256000000Y-31635000D02*
X237000000Y-31635000D01*
X280000000Y-31635000D02*
X256000000Y-31635000D01*
X242735000Y-4735000D02*
X246350000Y-8350000D01*
X246350000Y-8350000D02*
X246350000Y-9365000D01*
X240645000Y-4735000D02*
X242735000Y-4735000D01*
X269220000Y-4735000D02*
X271425000Y-4735000D01*
X271425000Y-4735000D02*
X275350000Y-8660000D01*
X275350000Y-8660000D02*
X275350000Y-9365000D01*
X297795000Y-4735000D02*
X297795000Y-10480000D01*
X297795000Y-10480000D02*
X298845000Y-11530000D01*
X298845000Y-11530000D02*
X299000000Y-11530000D01*
X16807500Y-23785000D02*
X19125000Y-23785000D01*
X19125000Y-23785000D02*
X23000000Y-27660000D01*
X23000000Y-27660000D02*
X23000000Y-28365000D01*
X40620000Y-23785000D02*
X43125000Y-23785000D01*
X43125000Y-23785000D02*
X47000000Y-27660000D01*
X47000000Y-27660000D02*
X47000000Y-28365000D01*
X59670000Y-23785000D02*
X62125000Y-23785000D01*
X62125000Y-23785000D02*
X66000000Y-27660000D01*
X66000000Y-27660000D02*
X66000000Y-28365000D01*
X78720000Y-23785000D02*
X81125000Y-23785000D01*
X81125000Y-23785000D02*
X85000000Y-27660000D01*
X85000000Y-27660000D02*
X85000000Y-28365000D01*
X97770000Y-23785000D02*
X100125000Y-23785000D01*
X100125000Y-23785000D02*
X104000000Y-27660000D01*
X104000000Y-27660000D02*
X104000000Y-28365000D01*
X116820000Y-23785000D02*
X119125000Y-23785000D01*
X123000000Y-27660000D02*
X123000000Y-28365000D01*
X119125000Y-23785000D02*
X123000000Y-27660000D01*
X135870000Y-23785000D02*
X138125000Y-23785000D01*
X138125000Y-23785000D02*
X142000000Y-27660000D01*
X142000000Y-27660000D02*
X142000000Y-28365000D01*
X154920000Y-23785000D02*
X157125000Y-23785000D01*
X157125000Y-23785000D02*
X161000000Y-27660000D01*
X161000000Y-27660000D02*
X161000000Y-28365000D01*
X146140000Y-50635000D02*
X128000000Y-50635000D01*
X166000000Y-50635000D02*
X147000000Y-50635000D01*
X147000000Y-50635000D02*
X146140000Y-50635000D01*
X70500000Y-50635000D02*
X89500000Y-50635000D01*
X299200000Y-52635000D02*
X299200000Y-51930000D01*
X299200000Y-51930000D02*
X297905000Y-50635000D01*
X297905000Y-50635000D02*
X274360000Y-50635000D01*
X274360000Y-50635000D02*
X273500000Y-50635000D01*
X89465000Y-50600000D02*
X89500000Y-50635000D01*
X108500000Y-50635000D02*
X110365000Y-50635000D01*
X115635000Y-50635000D02*
X128000000Y-50635000D01*
X115500000Y-50500000D02*
X115635000Y-50635000D01*
X110365000Y-50635000D02*
X110500000Y-50500000D01*
X121920000Y-71120000D02*
X121920000Y-76842742D01*
X120650000Y-66040000D02*
X120650000Y-68580000D01*
X108500000Y-53890000D02*
X120650000Y-66040000D01*
X108500000Y-50635000D02*
X108500000Y-53890000D01*
X121920000Y-69850000D02*
X121920000Y-71120000D01*
X120650000Y-68580000D02*
X121920000Y-69850000D01*
X25500000Y-50635000D02*
X51500000Y-50635000D01*
X70500000Y-50635000D02*
X69640000Y-50635000D01*
X69640000Y-50635000D02*
X51500000Y-50635000D01*
X89500000Y-50635000D02*
X88640000Y-50635000D01*
X108500000Y-50635000D02*
X107640000Y-50635000D01*
X107640000Y-50635000D02*
X89500000Y-50635000D01*
X128000000Y-50635000D02*
X127140000Y-50635000D01*
X185000000Y-50635000D02*
X166000000Y-50635000D01*
X204000000Y-50635000D02*
X185000000Y-50635000D01*
X223000000Y-50635000D02*
X222140000Y-50635000D01*
X222140000Y-50635000D02*
X204000000Y-50635000D01*
X242500000Y-50635000D02*
X223000000Y-50635000D01*
X273500000Y-50635000D02*
X242500000Y-50635000D01*
X173970000Y-23785000D02*
X176125000Y-23785000D01*
X176125000Y-23785000D02*
X180000000Y-27660000D01*
X180000000Y-27660000D02*
X180000000Y-28365000D01*
X193020000Y-23785000D02*
X195125000Y-23785000D01*
X195125000Y-23785000D02*
X199000000Y-27660000D01*
X199000000Y-27660000D02*
X199000000Y-28365000D01*
X214285000Y-23785000D02*
X218000000Y-27500000D01*
X218000000Y-27500000D02*
X218000000Y-28365000D01*
X212070000Y-23785000D02*
X214285000Y-23785000D01*
X233285000Y-23785000D02*
X237000000Y-27500000D01*
X237000000Y-27500000D02*
X237000000Y-28365000D01*
X231120000Y-23785000D02*
X233285000Y-23785000D01*
X252285000Y-23785000D02*
X256000000Y-27500000D01*
X256000000Y-27500000D02*
X256000000Y-28365000D01*
X250170000Y-23785000D02*
X252285000Y-23785000D01*
X273982500Y-23785000D02*
X276125000Y-23785000D01*
X276125000Y-23785000D02*
X280000000Y-27660000D01*
X280000000Y-27660000D02*
X280000000Y-28365000D01*
X297795000Y-23785000D02*
X297795000Y-29115000D01*
X297795000Y-29115000D02*
X299045000Y-30365000D01*
X299045000Y-30365000D02*
X299200000Y-30365000D01*
X19188750Y-42835000D02*
X21675000Y-42835000D01*
X21675000Y-42835000D02*
X25500000Y-46660000D01*
X25500000Y-46660000D02*
X25500000Y-47365000D01*
X45382400Y-42835000D02*
X47675000Y-42835000D01*
X47675000Y-42835000D02*
X51500000Y-46660000D01*
X51500000Y-46660000D02*
X51500000Y-47365000D01*
X64432400Y-42835000D02*
X66675000Y-42835000D01*
X66675000Y-42835000D02*
X70500000Y-46660000D01*
X70500000Y-46660000D02*
X70500000Y-47365000D01*
X83482400Y-42835000D02*
X85675000Y-42835000D01*
X85675000Y-42835000D02*
X89500000Y-46660000D01*
X89500000Y-46660000D02*
X89500000Y-47365000D01*
X80500000Y-69635000D02*
X99500000Y-69635000D01*
X299200000Y-71835000D02*
X299200000Y-71130000D01*
X299200000Y-71130000D02*
X297705000Y-69635000D01*
X297705000Y-69635000D02*
X285860000Y-69635000D01*
X285860000Y-69635000D02*
X285000000Y-69635000D01*
X99465000Y-69600000D02*
X99500000Y-69635000D01*
X118500000Y-69635000D02*
X120435000Y-69635000D01*
X134835000Y-69635000D02*
X137500000Y-69635000D01*
X134620000Y-69850000D02*
X134835000Y-69635000D01*
X120435000Y-69635000D02*
X120650000Y-69850000D01*
X118500000Y-69635000D02*
X118500000Y-79131371D01*
X118500000Y-79131371D02*
X115520458Y-82110913D01*
X285000000Y-69635000D02*
X259000000Y-69635000D01*
X233000000Y-69635000D02*
X233860000Y-69635000D01*
X233860000Y-69635000D02*
X259000000Y-69635000D01*
X213500000Y-69635000D02*
X214360000Y-69635000D01*
X214360000Y-69635000D02*
X233000000Y-69635000D01*
X194500000Y-69635000D02*
X213500000Y-69635000D01*
X175500000Y-69635000D02*
X176360000Y-69635000D01*
X176360000Y-69635000D02*
X194500000Y-69635000D01*
X156500000Y-69635000D02*
X175500000Y-69635000D01*
X137500000Y-69635000D02*
X156500000Y-69635000D01*
X99500000Y-69635000D02*
X118500000Y-69635000D01*
X61500000Y-69635000D02*
X80500000Y-69635000D01*
X61500000Y-69635000D02*
X60640000Y-69635000D01*
X60640000Y-69635000D02*
X30500000Y-69635000D01*
X102532400Y-42835000D02*
X104675000Y-42835000D01*
X108500000Y-46660000D02*
X108500000Y-47365000D01*
X104675000Y-42835000D02*
X108500000Y-46660000D01*
X121582400Y-42835000D02*
X124175000Y-42835000D01*
X124175000Y-42835000D02*
X128000000Y-46660000D01*
X128000000Y-46660000D02*
X128000000Y-47365000D01*
X147000000Y-46660000D02*
X147000000Y-47365000D01*
X140632400Y-42835000D02*
X143175000Y-42835000D01*
X143175000Y-42835000D02*
X147000000Y-46660000D01*
X159682400Y-42835000D02*
X162175000Y-42835000D01*
X162175000Y-42835000D02*
X166000000Y-46660000D01*
X166000000Y-46660000D02*
X166000000Y-47365000D01*
X178732400Y-42835000D02*
X181175000Y-42835000D01*
X181175000Y-42835000D02*
X185000000Y-46660000D01*
X185000000Y-46660000D02*
X185000000Y-47365000D01*
X197782400Y-42835000D02*
X200175000Y-42835000D01*
X200175000Y-42835000D02*
X204000000Y-46660000D01*
X204000000Y-46660000D02*
X204000000Y-47365000D01*
X216832400Y-42835000D02*
X219175000Y-42835000D01*
X219175000Y-42835000D02*
X223000000Y-46660000D01*
X223000000Y-46660000D02*
X223000000Y-47365000D01*
X235882400Y-42835000D02*
X238675000Y-42835000D01*
D30*
X55696000Y-14525000D02*
X55696000Y-13550000D01*
D29*
X55696000Y-11650000D02*
X55696000Y-11050000D01*
X55696000Y-11050000D02*
X56596000Y-10150000D01*
X56596000Y-10150000D02*
X56596000Y-5550000D01*
D30*
X107742284Y-92151829D02*
X107742283Y-92151829D01*
X107742283Y-92151829D02*
X105573112Y-94321000D01*
X105573112Y-94321000D02*
X101984820Y-94321000D01*
D29*
X39200000Y-74932340D02*
X35575339Y-78557001D01*
X39655200Y-74850000D02*
X39655171Y-74849971D01*
X39655171Y-74849971D02*
X39282369Y-74849971D01*
X39282369Y-74849971D02*
X39200000Y-74932340D01*
X101612712Y-74849970D02*
X85450030Y-74849970D01*
X85450030Y-74849970D02*
X85450000Y-74850000D01*
X35575339Y-78557001D02*
X12399249Y-78557001D01*
X12399249Y-78557001D02*
X8501250Y-82455000D01*
X101612712Y-74849970D02*
X106328071Y-79565329D01*
X106328071Y-79565329D02*
X107176598Y-80413856D01*
X39268750Y-75500000D02*
X32313750Y-82455000D01*
X101081371Y-75450000D02*
X86150000Y-75450000D01*
X86150000Y-75450000D02*
X86100000Y-75500000D01*
X106610913Y-80979542D02*
X101331371Y-75700000D01*
X101081371Y-75450000D02*
X101331371Y-75700000D01*
X106800000Y-77800000D02*
X106825483Y-77800000D01*
X106825483Y-77800000D02*
X108307969Y-79282486D01*
X115500000Y-77600000D02*
X113257716Y-79842284D01*
X113257716Y-79842284D02*
X113257716Y-79848171D01*
X115900000Y-78400000D02*
X113886144Y-80413856D01*
X113886144Y-80413856D02*
X113823402Y-80413856D01*
X116300000Y-79200000D02*
X114520458Y-80979542D01*
X114520458Y-80979542D02*
X114389087Y-80979542D01*
X113823402Y-91586144D02*
X117037258Y-94800000D01*
X117037258Y-94800000D02*
X171800001Y-94799999D01*
X171800001Y-94799999D02*
X186739532Y-79860468D01*
X186739532Y-79860468D02*
X201470468Y-79860468D01*
X201470468Y-79860468D02*
X202545000Y-80935000D01*
X238275000Y-80935000D02*
X242000000Y-84660000D01*
X235882500Y-80935000D02*
X238275000Y-80935000D01*
X176263590Y-89700000D02*
X171613600Y-94349990D01*
X171613600Y-94349990D02*
X117718619Y-94349990D01*
X117718619Y-94349990D02*
X114389087Y-91020458D01*
X171427200Y-93899980D02*
X118399980Y-93899980D01*
X118399980Y-93899980D02*
X114954773Y-90454773D01*
X176077189Y-89249991D02*
X171427200Y-93899980D01*
X299000000Y-91035000D02*
X299000000Y-90330000D01*
X299000000Y-90330000D02*
X297305000Y-88635000D01*
X297305000Y-88635000D02*
X285860000Y-88635000D01*
X285860000Y-88635000D02*
X285000000Y-88635000D01*
X84900000Y-88700000D02*
X68565000Y-88700000D01*
X68565000Y-88700000D02*
X68500000Y-88635000D01*
X68595000Y-88730000D02*
X68500000Y-88635000D01*
X106680000Y-95250000D02*
X106906854Y-95250000D01*
X106906854Y-95250000D02*
X108873654Y-93283200D01*
X106680000Y-95250000D02*
X132885000Y-95250000D01*
X266000000Y-88635000D02*
X266860000Y-88635000D01*
X266860000Y-88635000D02*
X285000000Y-88635000D01*
X242000000Y-88635000D02*
X266000000Y-88635000D01*
X213500000Y-88635000D02*
X242000000Y-88635000D01*
X44500000Y-88635000D02*
X68500000Y-88635000D01*
X20500000Y-88635000D02*
X44500000Y-88635000D01*
X171240800Y-93449970D02*
X119081341Y-93449970D01*
X175890788Y-88799982D02*
X171240800Y-93449970D01*
X119081341Y-93449970D02*
X115520458Y-89889087D01*
X297795000Y-42835000D02*
X297795000Y-48115000D01*
X297795000Y-48115000D02*
X299045000Y-49365000D01*
X299045000Y-49365000D02*
X299200000Y-49365000D01*
X23951250Y-61885000D02*
X26725000Y-61885000D01*
X30500000Y-65660000D02*
X30500000Y-66365000D01*
X26725000Y-61885000D02*
X30500000Y-65660000D01*
X54907500Y-61885000D02*
X57725000Y-61885000D01*
X57725000Y-61885000D02*
X61500000Y-65660000D01*
X61500000Y-65660000D02*
X61500000Y-66365000D01*
X73957500Y-61885000D02*
X76725000Y-61885000D01*
X76725000Y-61885000D02*
X80500000Y-65660000D01*
X80500000Y-65660000D02*
X80500000Y-66365000D01*
X99500000Y-65660000D02*
X99500000Y-66365000D01*
X112057500Y-61885000D02*
X114725000Y-61885000D01*
X114725000Y-61885000D02*
X118500000Y-65660000D01*
X118500000Y-65660000D02*
X118500000Y-66365000D01*
X131107500Y-61885000D02*
X133725000Y-61885000D01*
X133725000Y-61885000D02*
X137500000Y-65660000D01*
X137500000Y-65660000D02*
X137500000Y-66365000D01*
X150157500Y-61885000D02*
X152725000Y-61885000D01*
X152725000Y-61885000D02*
X156500000Y-65660000D01*
X156500000Y-65660000D02*
X156500000Y-66365000D01*
X169207500Y-61885000D02*
X171725000Y-61885000D01*
X171725000Y-61885000D02*
X175500000Y-65660000D01*
X188257500Y-61885000D02*
X190725000Y-61885000D01*
X190725000Y-61885000D02*
X194500000Y-65660000D01*
X194500000Y-65660000D02*
X194500000Y-66365000D01*
X207307500Y-61885000D02*
X209725000Y-61885000D01*
X226357500Y-61885000D02*
X229225000Y-61885000D01*
X229225000Y-61885000D02*
X233000000Y-65660000D01*
X233000000Y-65660000D02*
X233000000Y-66365000D01*
X252551250Y-61885000D02*
X255225000Y-61885000D01*
X278745000Y-61885000D02*
X281225000Y-61885000D01*
X281225000Y-61885000D02*
X285000000Y-65660000D01*
X285000000Y-65660000D02*
X285000000Y-66365000D01*
X297795000Y-61885000D02*
X297795000Y-67315000D01*
X297795000Y-67315000D02*
X299045000Y-68565000D01*
X299045000Y-68565000D02*
X299200000Y-68565000D01*
X14426250Y-80935000D02*
X16775000Y-80935000D01*
X16775000Y-80935000D02*
X20500000Y-84660000D01*
X20500000Y-84660000D02*
X20500000Y-85365000D01*
X38238750Y-80935000D02*
X40775000Y-80935000D01*
X40775000Y-80935000D02*
X44500000Y-84660000D01*
X44500000Y-84660000D02*
X44500000Y-85365000D01*
X62051250Y-80935000D02*
X64775000Y-80935000D01*
X64775000Y-80935000D02*
X68500000Y-84660000D01*
X68500000Y-84660000D02*
X68500000Y-85365000D01*
X133488750Y-80935000D02*
X135775000Y-80935000D01*
X259695000Y-80935000D02*
X262275000Y-80935000D01*
X285000000Y-84660000D02*
X285000000Y-85365000D01*
X262275000Y-80935000D02*
X266000000Y-84660000D01*
X278745000Y-80935000D02*
X281275000Y-80935000D01*
X281275000Y-80935000D02*
X285000000Y-84660000D01*
X297795000Y-86715000D02*
X298845000Y-87765000D01*
X298845000Y-87765000D02*
X299000000Y-87765000D01*
X175854360Y-88200000D02*
X171054400Y-92999960D01*
X171054400Y-92999960D02*
X119762702Y-92999960D01*
X119762702Y-92999960D02*
X116086144Y-89323402D01*
X99780000Y-89870000D02*
X103235887Y-89870000D01*
X103235887Y-89870000D02*
X104348171Y-88757716D01*
X94850000Y-94800000D02*
X99780000Y-89870000D01*
X92400000Y-94800000D02*
X97940261Y-89259739D01*
X97940261Y-89259739D02*
X102714778Y-89259739D01*
X102714778Y-89259739D02*
X102933959Y-89040558D01*
X102933959Y-89040558D02*
X103782486Y-88192031D01*
X103782486Y-88217514D02*
X103782486Y-88192031D01*
X95118000Y-88620000D02*
X102223146Y-88620000D01*
X102223146Y-88620000D02*
X103216800Y-87626346D01*
X89950000Y-94800000D02*
X89950000Y-93788000D01*
X89950000Y-93788000D02*
X95118000Y-88620000D01*
X10795000Y-14605000D02*
X12940000Y-16750000D01*
X12940000Y-16750000D02*
X14125000Y-16750000D01*
X29845000Y-14605000D02*
X31990000Y-16750000D01*
X31990000Y-16750000D02*
X33125000Y-16750000D01*
X45750000Y-19500000D02*
X47125000Y-19500000D01*
X47125000Y-19500000D02*
X47625000Y-20000000D01*
X47500000Y-16750000D02*
X44250000Y-16750000D01*
X44250000Y-16750000D02*
X44000000Y-17000000D01*
X48895000Y-14605000D02*
X47995001Y-15504999D01*
X47995001Y-15504999D02*
X47995001Y-16254999D01*
X47995001Y-16254999D02*
X47500000Y-16750000D01*
X66125000Y-20000000D02*
X66125000Y-19850000D01*
X66125000Y-19850000D02*
X64550001Y-18275001D01*
X66719999Y-15830001D02*
X67045001Y-15504999D01*
X67045001Y-15504999D02*
X67945000Y-14605000D01*
X60294997Y-15830001D02*
X66719999Y-15830001D01*
X86995000Y-14605000D02*
X88390000Y-16000000D01*
X88390000Y-16000000D02*
X90125000Y-16000000D01*
X106045000Y-14605000D02*
X107440000Y-16000000D01*
X107440000Y-16000000D02*
X108625000Y-16000000D01*
X125095000Y-14605000D02*
X126880000Y-14605000D01*
X126880000Y-14605000D02*
X128125000Y-15850000D01*
X128125000Y-15850000D02*
X128125000Y-16000000D01*
X144145000Y-14605000D02*
X145880000Y-14605000D01*
X145880000Y-14605000D02*
X147125000Y-15850000D01*
X147125000Y-15850000D02*
X147125000Y-16000000D01*
X163195000Y-14605000D02*
X164590000Y-16000000D01*
X164590000Y-16000000D02*
X166125000Y-16000000D01*
X182245000Y-14605000D02*
X183640000Y-16000000D01*
X183640000Y-16000000D02*
X185125000Y-16000000D01*
X201295000Y-14605000D02*
X202690000Y-16000000D01*
X202690000Y-16000000D02*
X204125000Y-16000000D01*
X220345000Y-14605000D02*
X221740000Y-16000000D01*
X221740000Y-16000000D02*
X223875000Y-16000000D01*
X239395000Y-14605000D02*
X240790000Y-16000000D01*
X240790000Y-16000000D02*
X242250000Y-16000000D01*
X267970000Y-14605000D02*
X269365000Y-16000000D01*
X269365000Y-16000000D02*
X271125000Y-16000000D01*
X282375000Y-92000000D02*
X283175000Y-92000000D01*
X283175000Y-92000000D02*
X285200001Y-94025001D01*
X285200001Y-94025001D02*
X299299999Y-94025001D01*
X299299999Y-94025001D02*
X300175000Y-93150000D01*
X300175000Y-93150000D02*
X300175000Y-93000000D01*
X282375000Y-73000000D02*
X283175000Y-73000000D01*
X283175000Y-73000000D02*
X285000001Y-74825001D01*
X285000001Y-74825001D02*
X299299999Y-74825001D01*
X299299999Y-74825001D02*
X300175000Y-73950000D01*
X300175000Y-73950000D02*
X300175000Y-73800000D01*
X296775000Y-58750000D02*
X296775000Y-58250000D01*
X296775000Y-58250000D02*
X300375000Y-54650000D01*
X300375000Y-54650000D02*
X300375000Y-54500000D01*
X277875000Y-35000000D02*
X278675000Y-35000000D01*
X300375000Y-35650000D02*
X300375000Y-35500000D01*
X278675000Y-35000000D02*
X280200001Y-36525001D01*
X299499999Y-36525001D02*
X300375000Y-35650000D01*
X280200001Y-36525001D02*
X299499999Y-36525001D01*
X272875000Y-16000000D02*
X273675000Y-16000000D01*
X273675000Y-16000000D02*
X275500001Y-17825001D01*
X275500001Y-17825001D02*
X299299999Y-17825001D01*
X299299999Y-17825001D02*
X300175000Y-16950000D01*
X300175000Y-16950000D02*
X300175000Y-16800000D01*
X263375000Y-92000000D02*
X264175000Y-92000000D01*
X264175000Y-92000000D02*
X265200001Y-93025001D01*
X265200001Y-93025001D02*
X281499999Y-93025001D01*
X281499999Y-93025001D02*
X282375000Y-92150000D01*
X282375000Y-92150000D02*
X282375000Y-92000000D01*
X239875000Y-92500000D02*
X240675000Y-92500000D01*
X240675000Y-92500000D02*
X241200001Y-93025001D01*
X241200001Y-93025001D02*
X262499999Y-93025001D01*
X262499999Y-93025001D02*
X263375000Y-92150000D01*
X263375000Y-92150000D02*
X263375000Y-92000000D01*
X210875000Y-92000000D02*
X211675000Y-92000000D01*
X239875000Y-92650000D02*
X239875000Y-92500000D01*
X211675000Y-92000000D02*
X213200001Y-93525001D01*
X213200001Y-93525001D02*
X238999999Y-93525001D01*
X238999999Y-93525001D02*
X239875000Y-92650000D01*
X209999999Y-93025001D02*
X210875000Y-92150000D01*
X210875000Y-92150000D02*
X210875000Y-92000000D01*
X136875000Y-91000000D02*
X169500000Y-91000000D01*
X169500000Y-91000000D02*
X170000000Y-91500000D01*
X41875000Y-93000000D02*
X42675000Y-93000000D01*
X42675000Y-93000000D02*
X43700001Y-94025001D01*
X43700001Y-94025001D02*
X63999999Y-94025001D01*
X63999999Y-94025001D02*
X64875000Y-93150000D01*
X64875000Y-93150000D02*
X64875000Y-93000000D01*
X18125000Y-93000000D02*
X18925000Y-93000000D01*
X18925000Y-93000000D02*
X19950001Y-94025001D01*
X19950001Y-94025001D02*
X40999999Y-94025001D01*
X40999999Y-94025001D02*
X41875000Y-93150000D01*
X41875000Y-93150000D02*
X41875000Y-93000000D01*
X256375000Y-73500000D02*
X257175000Y-73500000D01*
X257175000Y-73500000D02*
X257700001Y-74025001D01*
X257700001Y-74025001D02*
X281499999Y-74025001D01*
X281499999Y-74025001D02*
X282375000Y-73150000D01*
X282375000Y-73150000D02*
X282375000Y-73000000D01*
X229875000Y-73500000D02*
X230675000Y-73500000D01*
X230675000Y-73500000D02*
X231700001Y-74525001D01*
X231700001Y-74525001D02*
X255499999Y-74525001D01*
X256375000Y-73650000D02*
X256375000Y-73500000D01*
X255499999Y-74525001D02*
X256375000Y-73650000D01*
X210875000Y-73500000D02*
X211675000Y-73500000D01*
X211675000Y-73500000D02*
X212700001Y-74525001D01*
X212700001Y-74525001D02*
X228999999Y-74525001D01*
X228999999Y-74525001D02*
X229875000Y-73650000D01*
X229875000Y-73650000D02*
X229875000Y-73500000D01*
X191875000Y-73500000D02*
X192675000Y-73500000D01*
X192675000Y-73500000D02*
X193700001Y-74525001D01*
X193700001Y-74525001D02*
X209999999Y-74525001D01*
X209999999Y-74525001D02*
X210875000Y-73650000D01*
X210875000Y-73650000D02*
X210875000Y-73500000D01*
X172875000Y-73500000D02*
X173675000Y-73500000D01*
X173675000Y-73500000D02*
X174700001Y-74525001D01*
X174700001Y-74525001D02*
X190999999Y-74525001D01*
X190999999Y-74525001D02*
X191875000Y-73650000D01*
X191875000Y-73650000D02*
X191875000Y-73500000D01*
X153375000Y-73500000D02*
X154175000Y-73500000D01*
X154175000Y-73500000D02*
X155200001Y-74525001D01*
X155200001Y-74525001D02*
X171999999Y-74525001D01*
X171999999Y-74525001D02*
X172875000Y-73650000D01*
X172875000Y-73650000D02*
X172875000Y-73500000D01*
X134375000Y-73500000D02*
X139485002Y-73500000D01*
X139485002Y-73500000D02*
X140510003Y-74525001D01*
X140510003Y-74525001D02*
X152499999Y-74525001D01*
X152499999Y-74525001D02*
X153375000Y-73650000D01*
X153375000Y-73650000D02*
X153375000Y-73500000D01*
X124000000Y-74000000D02*
X125750000Y-75750000D01*
X125750000Y-75750000D02*
X132275000Y-75750000D01*
X132275000Y-75750000D02*
X134375000Y-73650000D01*
X134375000Y-73650000D02*
X134375000Y-73500000D01*
X115875000Y-73500000D02*
X117000000Y-73500000D01*
X117000000Y-73500000D02*
X117500000Y-74000000D01*
X113500000Y-74710002D02*
X114814998Y-74710002D01*
X114814998Y-74710002D02*
X115875000Y-73650000D01*
X115875000Y-73650000D02*
X115875000Y-73500000D01*
X97175000Y-74250000D02*
X113039998Y-74250000D01*
X113039998Y-74250000D02*
X113500000Y-74710002D01*
X96875000Y-73000000D02*
X96875000Y-73950000D01*
X96875000Y-73950000D02*
X97175000Y-74250000D01*
X84750000Y-74000000D02*
X94289998Y-74000000D01*
X94289998Y-74000000D02*
X94314999Y-74025001D01*
X94314999Y-74025001D02*
X95999999Y-74025001D01*
X95999999Y-74025001D02*
X96875000Y-73150000D01*
X96875000Y-73150000D02*
X96875000Y-73000000D01*
X77375000Y-73000000D02*
X81250000Y-73000000D01*
X81250000Y-73000000D02*
X82250000Y-74000000D01*
X58375000Y-73000000D02*
X59175000Y-73000000D01*
X77375000Y-73150000D02*
X77375000Y-73000000D01*
X59175000Y-73000000D02*
X60200001Y-74025001D01*
X60200001Y-74025001D02*
X76499999Y-74025001D01*
X76499999Y-74025001D02*
X77375000Y-73150000D01*
X30531991Y-78106991D02*
X35388939Y-78106991D01*
X35388939Y-78106991D02*
X39470929Y-74025001D01*
X39470929Y-74025001D02*
X57499999Y-74025001D01*
X57499999Y-74025001D02*
X58375000Y-73150000D01*
X58375000Y-73150000D02*
X58375000Y-73000000D01*
X27375000Y-74000000D02*
X27375000Y-74950000D01*
X27375000Y-74950000D02*
X30531991Y-78106991D01*
X273175000Y-58750000D02*
X296775000Y-58750000D01*
X269875000Y-54500000D02*
X269875000Y-55450000D01*
X269875000Y-55450000D02*
X273175000Y-58750000D01*
X242675000Y-58750000D02*
X265775000Y-58750000D01*
X269875000Y-54650000D02*
X269875000Y-54500000D01*
X265775000Y-58750000D02*
X269875000Y-54650000D01*
X239375000Y-54500000D02*
X239375000Y-55450000D01*
X239375000Y-55450000D02*
X242675000Y-58750000D01*
X220375000Y-54500000D02*
X221175000Y-54500000D01*
X221175000Y-54500000D02*
X222200001Y-55525001D01*
X222200001Y-55525001D02*
X238499999Y-55525001D01*
X238499999Y-55525001D02*
X239375000Y-54650000D01*
X239375000Y-54650000D02*
X239375000Y-54500000D01*
X201375000Y-54250000D02*
X202175000Y-54250000D01*
X202175000Y-54250000D02*
X203450001Y-55525001D01*
X203450001Y-55525001D02*
X219499999Y-55525001D01*
X219499999Y-55525001D02*
X220375000Y-54650000D01*
X220375000Y-54650000D02*
X220375000Y-54500000D01*
X182125000Y-54500000D02*
X182925000Y-54500000D01*
X182925000Y-54500000D02*
X183700001Y-55275001D01*
X183700001Y-55275001D02*
X200499999Y-55275001D01*
X200499999Y-55275001D02*
X201375000Y-54400000D01*
X201375000Y-54400000D02*
X201375000Y-54250000D01*
X163375000Y-54500000D02*
X164175000Y-54500000D01*
X164175000Y-54500000D02*
X165200001Y-55525001D01*
X165200001Y-55525001D02*
X181249999Y-55525001D01*
X181249999Y-55525001D02*
X182125000Y-54650000D01*
X182125000Y-54650000D02*
X182125000Y-54500000D01*
X144125000Y-54500000D02*
X144925000Y-54500000D01*
X144925000Y-54500000D02*
X145950001Y-55525001D01*
X145950001Y-55525001D02*
X162499999Y-55525001D01*
X162499999Y-55525001D02*
X163375000Y-54650000D01*
X163375000Y-54650000D02*
X163375000Y-54500000D01*
X124875000Y-54500000D02*
X125675000Y-54500000D01*
X125675000Y-54500000D02*
X126700001Y-55525001D01*
X126700001Y-55525001D02*
X143249999Y-55525001D01*
X143249999Y-55525001D02*
X144125000Y-54650000D01*
X144125000Y-54650000D02*
X144125000Y-54500000D01*
X113500000Y-55500000D02*
X113799999Y-55799999D01*
X113799999Y-55799999D02*
X123725001Y-55799999D01*
X123725001Y-55799999D02*
X124875000Y-54650000D01*
X124875000Y-54650000D02*
X124875000Y-54500000D01*
X105875000Y-54500000D02*
X106500000Y-54500000D01*
X106500000Y-54500000D02*
X107500000Y-55500000D01*
X86875000Y-54500000D02*
X87675000Y-54500000D01*
X87675000Y-54500000D02*
X88700001Y-55525001D01*
X88700001Y-55525001D02*
X104999999Y-55525001D01*
X105875000Y-54650000D02*
X105875000Y-54500000D01*
X104999999Y-55525001D02*
X105875000Y-54650000D01*
X86875000Y-54650000D02*
X86875000Y-54500000D01*
X67875000Y-54500000D02*
X68500000Y-54500000D01*
X68500000Y-54500000D02*
X69500000Y-55500000D01*
X48875000Y-54500000D02*
X49675000Y-54500000D01*
X49675000Y-54500000D02*
X50700001Y-55525001D01*
X50700001Y-55525001D02*
X66999999Y-55525001D01*
X66999999Y-55525001D02*
X67875000Y-54650000D01*
X67875000Y-54650000D02*
X67875000Y-54500000D01*
X22375000Y-54500000D02*
X23175000Y-54500000D01*
X23175000Y-54500000D02*
X24200001Y-55525001D01*
X24200001Y-55525001D02*
X47999999Y-55525001D01*
X47999999Y-55525001D02*
X48875000Y-54650000D01*
X48875000Y-54650000D02*
X48875000Y-54500000D01*
X253375000Y-35000000D02*
X254175000Y-35000000D01*
X254175000Y-35000000D02*
X255200001Y-36025001D01*
X255200001Y-36025001D02*
X276999999Y-36025001D01*
X276999999Y-36025001D02*
X277875000Y-35150000D01*
X277875000Y-35150000D02*
X277875000Y-35000000D01*
X234875000Y-35000000D02*
X235675000Y-35000000D01*
X253375000Y-35150000D02*
X253375000Y-35000000D01*
X235675000Y-35000000D02*
X236700001Y-36025001D01*
X236700001Y-36025001D02*
X252499999Y-36025001D01*
X252499999Y-36025001D02*
X253375000Y-35150000D01*
X215875000Y-35000000D02*
X216675000Y-35000000D01*
X216675000Y-35000000D02*
X217700001Y-36025001D01*
X217700001Y-36025001D02*
X233999999Y-36025001D01*
X233999999Y-36025001D02*
X234875000Y-35150000D01*
X234875000Y-35150000D02*
X234875000Y-35000000D01*
X196875000Y-35000000D02*
X197675000Y-35000000D01*
X215875000Y-35150000D02*
X215875000Y-35000000D01*
X197675000Y-35000000D02*
X198700001Y-36025001D01*
X198700001Y-36025001D02*
X214999999Y-36025001D01*
X214999999Y-36025001D02*
X215875000Y-35150000D01*
X177875000Y-35000000D02*
X178675000Y-35000000D01*
X178675000Y-35000000D02*
X179700001Y-36025001D01*
X179700001Y-36025001D02*
X195999999Y-36025001D01*
X195999999Y-36025001D02*
X196875000Y-35150000D01*
X196875000Y-35150000D02*
X196875000Y-35000000D01*
X158375000Y-35000000D02*
X159175000Y-35000000D01*
X159175000Y-35000000D02*
X160200001Y-36025001D01*
X176999999Y-36025001D02*
X177875000Y-35150000D01*
X160200001Y-36025001D02*
X176999999Y-36025001D01*
X177875000Y-35150000D02*
X177875000Y-35000000D01*
X139375000Y-35000000D02*
X140175000Y-35000000D01*
X158375000Y-35150000D02*
X158375000Y-35000000D01*
X140175000Y-35000000D02*
X141200001Y-36025001D01*
X141200001Y-36025001D02*
X157499999Y-36025001D01*
X157499999Y-36025001D02*
X158375000Y-35150000D01*
X120625000Y-35000000D02*
X121425000Y-35000000D01*
X121425000Y-35000000D02*
X122450001Y-36025001D01*
X122450001Y-36025001D02*
X138499999Y-36025001D01*
X138499999Y-36025001D02*
X139375000Y-35150000D01*
X139375000Y-35150000D02*
X139375000Y-35000000D01*
X108000000Y-36250000D02*
X108299999Y-36549999D01*
X108299999Y-36549999D02*
X119225001Y-36549999D01*
X119225001Y-36549999D02*
X120625000Y-35150000D01*
X120625000Y-35150000D02*
X120625000Y-35000000D01*
X101625000Y-35000000D02*
X101750000Y-35000000D01*
X101750000Y-35000000D02*
X103000000Y-36250000D01*
X82375000Y-34500000D02*
X83175000Y-34500000D01*
X83175000Y-34500000D02*
X84700001Y-36025001D01*
X100749999Y-36025001D02*
X101625000Y-35150000D01*
X84700001Y-36025001D02*
X100749999Y-36025001D01*
X101625000Y-35150000D02*
X101625000Y-35000000D01*
X82375000Y-34650000D02*
X82375000Y-34500000D01*
X63625000Y-35900000D02*
X64475000Y-36750000D01*
X64475000Y-36750000D02*
X67500000Y-36750000D01*
X44375000Y-35750000D02*
X45175000Y-35750000D01*
X45175000Y-35750000D02*
X46200001Y-36775001D01*
X46200001Y-36775001D02*
X62749999Y-36775001D01*
X62749999Y-36775001D02*
X63625000Y-35900000D01*
X63625000Y-35900000D02*
X63625000Y-35750000D01*
X20625000Y-35500000D02*
X21425000Y-35500000D01*
X43499999Y-36775001D02*
X44375000Y-35900000D01*
X21425000Y-35500000D02*
X22700001Y-36775001D01*
X22700001Y-36775001D02*
X43499999Y-36775001D01*
X44375000Y-35900000D02*
X44375000Y-35750000D01*
X244000000Y-16000000D02*
X244000000Y-16950000D01*
X244000000Y-16950000D02*
X244075001Y-17025001D01*
X271999999Y-17025001D02*
X272875000Y-16150000D01*
X244075001Y-17025001D02*
X271999999Y-17025001D01*
X272875000Y-16150000D02*
X272875000Y-16000000D01*
X225625000Y-16000000D02*
X226425000Y-16000000D01*
X226425000Y-16000000D02*
X227450001Y-17025001D01*
X227450001Y-17025001D02*
X243124999Y-17025001D01*
X243124999Y-17025001D02*
X244000000Y-16150000D01*
X244000000Y-16150000D02*
X244000000Y-16000000D01*
X205875000Y-16000000D02*
X205875000Y-16950000D01*
X205875000Y-16950000D02*
X205950001Y-17025001D01*
X205950001Y-17025001D02*
X224749999Y-17025001D01*
X224749999Y-17025001D02*
X225625000Y-16150000D01*
X225625000Y-16150000D02*
X225625000Y-16000000D01*
X186875000Y-16000000D02*
X186875000Y-16950000D01*
X204999999Y-17025001D02*
X205875000Y-16150000D01*
X186875000Y-16950000D02*
X186950001Y-17025001D01*
X186950001Y-17025001D02*
X204999999Y-17025001D01*
X205875000Y-16150000D02*
X205875000Y-16000000D01*
X167875000Y-16000000D02*
X168675000Y-16000000D01*
X168675000Y-16000000D02*
X169700001Y-17025001D01*
X169700001Y-17025001D02*
X185999999Y-17025001D01*
X185999999Y-17025001D02*
X186875000Y-16150000D01*
X186875000Y-16150000D02*
X186875000Y-16000000D01*
X148875000Y-16000000D02*
X148875000Y-16950000D01*
X148875000Y-16950000D02*
X148950001Y-17025001D01*
X148950001Y-17025001D02*
X166999999Y-17025001D01*
X166999999Y-17025001D02*
X167875000Y-16150000D01*
X167875000Y-16150000D02*
X167875000Y-16000000D01*
X129875000Y-16000000D02*
X130675000Y-16000000D01*
X130675000Y-16000000D02*
X131700001Y-17025001D01*
X131700001Y-17025001D02*
X147999999Y-17025001D01*
X147999999Y-17025001D02*
X148875000Y-16150000D01*
X148875000Y-16150000D02*
X148875000Y-16000000D01*
X110375000Y-16000000D02*
X111175000Y-16000000D01*
X111175000Y-16000000D02*
X112200001Y-17025001D01*
X112200001Y-17025001D02*
X128999999Y-17025001D01*
X128999999Y-17025001D02*
X129875000Y-16150000D01*
X129875000Y-16150000D02*
X129875000Y-16000000D01*
X96500000Y-16750000D02*
X96799999Y-17049999D01*
X96799999Y-17049999D02*
X109475001Y-17049999D01*
X109475001Y-17049999D02*
X110375000Y-16150000D01*
X110375000Y-16150000D02*
X110375000Y-16000000D01*
X91875000Y-16000000D02*
X93250000Y-16000000D01*
X93250000Y-16000000D02*
X94000000Y-16750000D01*
X67875000Y-20000000D02*
X88025000Y-20000000D01*
X88025000Y-20000000D02*
X91875000Y-16150000D01*
X91875000Y-16150000D02*
X91875000Y-16000000D01*
X49375000Y-20000000D02*
X56500000Y-20000000D01*
X56500000Y-20000000D02*
X57500000Y-21000000D01*
X34875000Y-16750000D02*
X36121130Y-16750000D01*
X36121130Y-16750000D02*
X40396131Y-21025001D01*
X40396131Y-21025001D02*
X48499999Y-21025001D01*
X48499999Y-21025001D02*
X49375000Y-20150000D01*
X49375000Y-20150000D02*
X49375000Y-20000000D01*
X15875000Y-16750000D02*
X16675000Y-16750000D01*
X16675000Y-16750000D02*
X17700001Y-17775001D01*
X17700001Y-17775001D02*
X33999999Y-17775001D01*
X33999999Y-17775001D02*
X34875000Y-16900000D01*
X34875000Y-16900000D02*
X34875000Y-16750000D01*
X202525001Y-93025001D02*
X209999999Y-93025001D01*
X201000000Y-91500000D02*
X202525001Y-93025001D01*
X194750000Y-91500000D02*
X201000000Y-91500000D01*
X15557500Y-33655000D02*
X15557500Y-34927792D01*
X15557500Y-34927792D02*
X16129708Y-35500000D01*
X16129708Y-35500000D02*
X18075000Y-35500000D01*
X18075000Y-35500000D02*
X18875000Y-35500000D01*
X39370000Y-33655000D02*
X39370000Y-34927792D01*
X39370000Y-34927792D02*
X40192208Y-35750000D01*
X40192208Y-35750000D02*
X41825000Y-35750000D01*
X41825000Y-35750000D02*
X42625000Y-35750000D01*
X58420000Y-33655000D02*
X60515000Y-35750000D01*
X60515000Y-35750000D02*
X61875000Y-35750000D01*
X77470000Y-33655000D02*
X79780000Y-33655000D01*
X79780000Y-33655000D02*
X80625000Y-34500000D01*
X96520000Y-33655000D02*
X97865000Y-35000000D01*
X97865000Y-35000000D02*
X99875000Y-35000000D01*
X115570000Y-33655000D02*
X116915000Y-35000000D01*
X116915000Y-35000000D02*
X118875000Y-35000000D01*
X134620000Y-33655000D02*
X135965000Y-35000000D01*
X135965000Y-35000000D02*
X137625000Y-35000000D01*
X153670000Y-33655000D02*
X155015000Y-35000000D01*
X155015000Y-35000000D02*
X156625000Y-35000000D01*
X172720000Y-33655000D02*
X174065000Y-35000000D01*
X174065000Y-35000000D02*
X176125000Y-35000000D01*
X191770000Y-33655000D02*
X193115000Y-35000000D01*
X193115000Y-35000000D02*
X195125000Y-35000000D01*
X210820000Y-33655000D02*
X212165000Y-35000000D01*
X212165000Y-35000000D02*
X214125000Y-35000000D01*
X229870000Y-33655000D02*
X231215000Y-35000000D01*
X231215000Y-35000000D02*
X233125000Y-35000000D01*
X248920000Y-33655000D02*
X250265000Y-35000000D01*
X250265000Y-35000000D02*
X251625000Y-35000000D01*
X272732500Y-33655000D02*
X274077500Y-35000000D01*
X274077500Y-35000000D02*
X276125000Y-35000000D01*
X17938750Y-52705000D02*
X19733750Y-54500000D01*
X19733750Y-54500000D02*
X20625000Y-54500000D01*
X44132400Y-52705000D02*
X45927400Y-54500000D01*
X45927400Y-54500000D02*
X47125000Y-54500000D01*
X63182400Y-52705000D02*
X64977400Y-54500000D01*
X64977400Y-54500000D02*
X66125000Y-54500000D01*
X82232400Y-52705000D02*
X84027400Y-54500000D01*
X84027400Y-54500000D02*
X85125000Y-54500000D01*
X101282400Y-52705000D02*
X103077400Y-54500000D01*
X103077400Y-54500000D02*
X104125000Y-54500000D01*
X120332400Y-52705000D02*
X122127400Y-54500000D01*
X122127400Y-54500000D02*
X123125000Y-54500000D01*
X139382400Y-52705000D02*
X141177400Y-54500000D01*
X141177400Y-54500000D02*
X142375000Y-54500000D01*
X158432400Y-52705000D02*
X160227400Y-54500000D01*
X160227400Y-54500000D02*
X161625000Y-54500000D01*
X177482400Y-52705000D02*
X179277400Y-54500000D01*
X179277400Y-54500000D02*
X180375000Y-54500000D01*
X196532400Y-52705000D02*
X196532400Y-53977792D01*
X196532400Y-53977792D02*
X196804608Y-54250000D01*
X198825000Y-54250000D02*
X199625000Y-54250000D01*
X196804608Y-54250000D02*
X198825000Y-54250000D01*
X215582400Y-52705000D02*
X215582400Y-53977792D01*
X215582400Y-53977792D02*
X216104608Y-54500000D01*
X216104608Y-54500000D02*
X217825000Y-54500000D01*
X217825000Y-54500000D02*
X218625000Y-54500000D01*
X234632400Y-52705000D02*
X236427400Y-54500000D01*
X236427400Y-54500000D02*
X237625000Y-54500000D01*
X265588650Y-52705000D02*
X265588650Y-53977792D01*
X265588650Y-53977792D02*
X266110858Y-54500000D01*
X266110858Y-54500000D02*
X267325000Y-54500000D01*
X267325000Y-54500000D02*
X268125000Y-54500000D01*
X22701250Y-71755000D02*
X22701250Y-73027792D01*
X22701250Y-73027792D02*
X23673458Y-74000000D01*
X23673458Y-74000000D02*
X24825000Y-74000000D01*
X24825000Y-74000000D02*
X25625000Y-74000000D01*
X53657500Y-71755000D02*
X54902500Y-73000000D01*
X54902500Y-73000000D02*
X56625000Y-73000000D01*
X72707500Y-71755000D02*
X74530000Y-71755000D01*
X75625000Y-72850000D02*
X75625000Y-73000000D01*
X74530000Y-71755000D02*
X75625000Y-72850000D01*
X91757500Y-71755000D02*
X93002500Y-73000000D01*
X93002500Y-73000000D02*
X95125000Y-73000000D01*
X110807500Y-71755000D02*
X110807500Y-73027792D01*
X110807500Y-73027792D02*
X111279708Y-73500000D01*
X111279708Y-73500000D02*
X113325000Y-73500000D01*
X113325000Y-73500000D02*
X114125000Y-73500000D01*
X129857500Y-71755000D02*
X131602500Y-73500000D01*
X131602500Y-73500000D02*
X132625000Y-73500000D01*
X148907500Y-71755000D02*
X150652500Y-73500000D01*
X150652500Y-73500000D02*
X151625000Y-73500000D01*
X167957500Y-71755000D02*
X169530000Y-71755000D01*
X169530000Y-71755000D02*
X171125000Y-73350000D01*
X171125000Y-73350000D02*
X171125000Y-73500000D01*
X187007500Y-71755000D02*
X188752500Y-73500000D01*
X188752500Y-73500000D02*
X190125000Y-73500000D01*
X206057500Y-71755000D02*
X206057500Y-73027792D01*
X206057500Y-73027792D02*
X206529708Y-73500000D01*
X206529708Y-73500000D02*
X208325000Y-73500000D01*
X208325000Y-73500000D02*
X209125000Y-73500000D01*
X225107500Y-71755000D02*
X226852500Y-73500000D01*
X226852500Y-73500000D02*
X228125000Y-73500000D01*
X251301250Y-71755000D02*
X251301250Y-73027792D01*
X251301250Y-73027792D02*
X251773458Y-73500000D01*
X251773458Y-73500000D02*
X253825000Y-73500000D01*
X253825000Y-73500000D02*
X254625000Y-73500000D01*
X277495000Y-71755000D02*
X278740000Y-73000000D01*
X278740000Y-73000000D02*
X280625000Y-73000000D01*
X13176250Y-90805000D02*
X15371250Y-93000000D01*
X15371250Y-93000000D02*
X16375000Y-93000000D01*
X39183750Y-93000000D02*
X40125000Y-93000000D01*
X36988750Y-90805000D02*
X39183750Y-93000000D01*
X62996250Y-93000000D02*
X63125000Y-93000000D01*
X60801250Y-90805000D02*
X62996250Y-93000000D01*
X134930000Y-90805000D02*
X135125000Y-91000000D01*
X132238750Y-90805000D02*
X134930000Y-90805000D01*
X207252500Y-92000000D02*
X209125000Y-92000000D01*
X206057500Y-90805000D02*
X207252500Y-92000000D01*
X234632500Y-90805000D02*
X236327500Y-92500000D01*
X236327500Y-92500000D02*
X238125000Y-92500000D01*
X259640000Y-92000000D02*
X261625000Y-92000000D01*
X278690000Y-92000000D02*
X280625000Y-92000000D01*
X258445000Y-90805000D02*
X259640000Y-92000000D01*
X277495000Y-90805000D02*
X278690000Y-92000000D01*
X207307500Y-80935000D02*
X209775000Y-80935000D01*
X209775000Y-80935000D02*
X213500000Y-84660000D01*
X213500000Y-84660000D02*
X213500000Y-85365000D01*
X242000000Y-84660000D02*
X242000000Y-85365000D01*
X266000000Y-84660000D02*
X266000000Y-85365000D01*
X297795000Y-80935000D02*
X297795000Y-86715000D01*
M02*
