G04 #@! TF.FileFunction,Copper,L1,Top,Signal*
%FSLAX46Y46*%
G04 Gerber Fmt 4.6, Leading zero omitted, Abs format (unit mm)*
G04 Created by KiCad (PCBNEW (2016-11-25 revision 30df041)-makepkg) date 12/11/16 19:09:30*
%MOMM*%
%LPD*%
G01*
G04 APERTURE LIST*
%ADD10C,0.100000*%
%ADD11C,0.250000*%
%ADD12C,1.800000*%
%ADD13C,2.500000*%
%ADD14C,2.500000*%
%ADD15C,6.100000*%
%ADD16C,1.524000*%
%ADD17R,1.524000X1.524000*%
%ADD18R,1.000000X1.250000*%
%ADD19O,1.100000X3.600000*%
%ADD20R,1.100000X1.400000*%
%ADD21R,0.910000X1.220000*%
%ADD22C,0.600000*%
G04 APERTURE END LIST*
D10*
D11*
X149000000Y-89952380D02*
X149000000Y-88952380D01*
X149238095Y-88952380D01*
X149380952Y-89000000D01*
X149476190Y-89095238D01*
X149523809Y-89190476D01*
X149571428Y-89380952D01*
X149571428Y-89523809D01*
X149523809Y-89714285D01*
X149476190Y-89809523D01*
X149380952Y-89904761D01*
X149238095Y-89952380D01*
X149000000Y-89952380D01*
X150380952Y-89904761D02*
X150285714Y-89952380D01*
X150095238Y-89952380D01*
X150000000Y-89904761D01*
X149952380Y-89809523D01*
X149952380Y-89428571D01*
X150000000Y-89333333D01*
X150095238Y-89285714D01*
X150285714Y-89285714D01*
X150380952Y-89333333D01*
X150428571Y-89428571D01*
X150428571Y-89523809D01*
X149952380Y-89619047D01*
X150809523Y-89904761D02*
X150904761Y-89952380D01*
X151095238Y-89952380D01*
X151190476Y-89904761D01*
X151238095Y-89809523D01*
X151238095Y-89761904D01*
X151190476Y-89666666D01*
X151095238Y-89619047D01*
X150952380Y-89619047D01*
X150857142Y-89571428D01*
X150809523Y-89476190D01*
X150809523Y-89428571D01*
X150857142Y-89333333D01*
X150952380Y-89285714D01*
X151095238Y-89285714D01*
X151190476Y-89333333D01*
X151666666Y-89952380D02*
X151666666Y-89285714D01*
X151666666Y-88952380D02*
X151619047Y-89000000D01*
X151666666Y-89047619D01*
X151714285Y-89000000D01*
X151666666Y-88952380D01*
X151666666Y-89047619D01*
X152571428Y-89285714D02*
X152571428Y-90095238D01*
X152523809Y-90190476D01*
X152476190Y-90238095D01*
X152380952Y-90285714D01*
X152238095Y-90285714D01*
X152142857Y-90238095D01*
X152571428Y-89904761D02*
X152476190Y-89952380D01*
X152285714Y-89952380D01*
X152190476Y-89904761D01*
X152142857Y-89857142D01*
X152095238Y-89761904D01*
X152095238Y-89476190D01*
X152142857Y-89380952D01*
X152190476Y-89333333D01*
X152285714Y-89285714D01*
X152476190Y-89285714D01*
X152571428Y-89333333D01*
X153047619Y-89285714D02*
X153047619Y-89952380D01*
X153047619Y-89380952D02*
X153095238Y-89333333D01*
X153190476Y-89285714D01*
X153333333Y-89285714D01*
X153428571Y-89333333D01*
X153476190Y-89428571D01*
X153476190Y-89952380D01*
X154714285Y-89952380D02*
X154714285Y-88952380D01*
X154714285Y-89333333D02*
X154809523Y-89285714D01*
X155000000Y-89285714D01*
X155095238Y-89333333D01*
X155142857Y-89380952D01*
X155190476Y-89476190D01*
X155190476Y-89761904D01*
X155142857Y-89857142D01*
X155095238Y-89904761D01*
X155000000Y-89952380D01*
X154809523Y-89952380D01*
X154714285Y-89904761D01*
X155523809Y-89285714D02*
X155761904Y-89952380D01*
X156000000Y-89285714D02*
X155761904Y-89952380D01*
X155666666Y-90190476D01*
X155619047Y-90238095D01*
X155523809Y-90285714D01*
X157142857Y-89952380D02*
X157142857Y-88952380D01*
X157523809Y-88952380D01*
X157619047Y-89000000D01*
X157666666Y-89047619D01*
X157714285Y-89142857D01*
X157714285Y-89285714D01*
X157666666Y-89380952D01*
X157619047Y-89428571D01*
X157523809Y-89476190D01*
X157142857Y-89476190D01*
X158523809Y-89904761D02*
X158428571Y-89952380D01*
X158238095Y-89952380D01*
X158142857Y-89904761D01*
X158095238Y-89809523D01*
X158095238Y-89428571D01*
X158142857Y-89333333D01*
X158238095Y-89285714D01*
X158428571Y-89285714D01*
X158523809Y-89333333D01*
X158571428Y-89428571D01*
X158571428Y-89523809D01*
X158095238Y-89619047D01*
X159000000Y-89285714D02*
X159000000Y-89952380D01*
X159000000Y-89380952D02*
X159047619Y-89333333D01*
X159142857Y-89285714D01*
X159285714Y-89285714D01*
X159380952Y-89333333D01*
X159428571Y-89428571D01*
X159428571Y-89952380D01*
X160333333Y-89952380D02*
X160333333Y-88952380D01*
X160333333Y-89904761D02*
X160238095Y-89952380D01*
X160047619Y-89952380D01*
X159952380Y-89904761D01*
X159904761Y-89857142D01*
X159857142Y-89761904D01*
X159857142Y-89476190D01*
X159904761Y-89380952D01*
X159952380Y-89333333D01*
X160047619Y-89285714D01*
X160238095Y-89285714D01*
X160333333Y-89333333D01*
X161238095Y-89285714D02*
X161238095Y-89952380D01*
X160809523Y-89285714D02*
X160809523Y-89809523D01*
X160857142Y-89904761D01*
X160952380Y-89952380D01*
X161095238Y-89952380D01*
X161190476Y-89904761D01*
X161238095Y-89857142D01*
X161857142Y-89952380D02*
X161761904Y-89904761D01*
X161714285Y-89809523D01*
X161714285Y-88952380D01*
X162666666Y-89285714D02*
X162666666Y-89952380D01*
X162238095Y-89285714D02*
X162238095Y-89809523D01*
X162285714Y-89904761D01*
X162380952Y-89952380D01*
X162523809Y-89952380D01*
X162619047Y-89904761D01*
X162666666Y-89857142D01*
X163142857Y-89952380D02*
X163142857Y-89285714D01*
X163142857Y-89380952D02*
X163190476Y-89333333D01*
X163285714Y-89285714D01*
X163428571Y-89285714D01*
X163523809Y-89333333D01*
X163571428Y-89428571D01*
X163571428Y-89952380D01*
X163571428Y-89428571D02*
X163619047Y-89333333D01*
X163714285Y-89285714D01*
X163857142Y-89285714D01*
X163952380Y-89333333D01*
X164000000Y-89428571D01*
X164000000Y-89952380D01*
X164476190Y-89952380D02*
X164476190Y-88952380D01*
X165047619Y-89952380D02*
X164619047Y-89380952D01*
X165047619Y-88952380D02*
X164476190Y-89523809D01*
X165809523Y-89428571D02*
X165952380Y-89476190D01*
X166000000Y-89523809D01*
X166047619Y-89619047D01*
X166047619Y-89761904D01*
X166000000Y-89857142D01*
X165952380Y-89904761D01*
X165857142Y-89952380D01*
X165476190Y-89952380D01*
X165476190Y-88952380D01*
X165809523Y-88952380D01*
X165904761Y-89000000D01*
X165952380Y-89047619D01*
X166000000Y-89142857D01*
X166000000Y-89238095D01*
X165952380Y-89333333D01*
X165904761Y-89380952D01*
X165809523Y-89428571D01*
X165476190Y-89428571D01*
X149619047Y-91452380D02*
X149285714Y-90976190D01*
X149047619Y-91452380D02*
X149047619Y-90452380D01*
X149428571Y-90452380D01*
X149523809Y-90500000D01*
X149571428Y-90547619D01*
X149619047Y-90642857D01*
X149619047Y-90785714D01*
X149571428Y-90880952D01*
X149523809Y-90928571D01*
X149428571Y-90976190D01*
X149047619Y-90976190D01*
X150238095Y-90452380D02*
X150333333Y-90452380D01*
X150428571Y-90500000D01*
X150476190Y-90547619D01*
X150523809Y-90642857D01*
X150571428Y-90833333D01*
X150571428Y-91071428D01*
X150523809Y-91261904D01*
X150476190Y-91357142D01*
X150428571Y-91404761D01*
X150333333Y-91452380D01*
X150238095Y-91452380D01*
X150142857Y-91404761D01*
X150095238Y-91357142D01*
X150047619Y-91261904D01*
X150000000Y-91071428D01*
X150000000Y-90833333D01*
X150047619Y-90642857D01*
X150095238Y-90547619D01*
X150142857Y-90500000D01*
X150238095Y-90452380D01*
X151000000Y-91357142D02*
X151047619Y-91404761D01*
X151000000Y-91452380D01*
X150952380Y-91404761D01*
X151000000Y-91357142D01*
X151000000Y-91452380D01*
X152000000Y-91452380D02*
X151428571Y-91452380D01*
X151714285Y-91452380D02*
X151714285Y-90452380D01*
X151619047Y-90595238D01*
X151523809Y-90690476D01*
X151428571Y-90738095D01*
D12*
X58420000Y-33655000D03*
X55880000Y-33655000D03*
D13*
X59670000Y-23785000D03*
D14*
X59689724Y-23495672D02*
X59650276Y-24074328D01*
D13*
X53745000Y-25305000D03*
D14*
X54150453Y-24575046D02*
X53339547Y-26034954D01*
D12*
X15557500Y-33655000D03*
X13017500Y-33655000D03*
D13*
X16807500Y-23785000D03*
D14*
X16827224Y-23495672D02*
X16787776Y-24074328D01*
D13*
X10882500Y-25305000D03*
D14*
X11287953Y-24575046D02*
X10477047Y-26034954D01*
D13*
X34695000Y-25305000D03*
D14*
X35100453Y-24575046D02*
X34289547Y-26034954D01*
D13*
X40620000Y-23785000D03*
D14*
X40639724Y-23495672D02*
X40600276Y-24074328D01*
D12*
X36830000Y-33655000D03*
X39370000Y-33655000D03*
D15*
X168700000Y-87000000D03*
X158100000Y-86350000D03*
X204800000Y-47650000D03*
D16*
X99750000Y-94800000D03*
X94850000Y-94800000D03*
X92400000Y-94800000D03*
D17*
X89950000Y-94800000D03*
D16*
X97300000Y-94800000D03*
X87500000Y-94800000D03*
D15*
X90500000Y-47700000D03*
D18*
X159750000Y-79600000D03*
X161750000Y-79600000D03*
X165250000Y-79600000D03*
X167250000Y-79600000D03*
X170750000Y-79600000D03*
X172750000Y-79600000D03*
X154150000Y-77400000D03*
X156150000Y-77400000D03*
D19*
X38650000Y1100000D03*
X31350000Y1100000D03*
D20*
X175200000Y-76700000D03*
X176950000Y-76700000D03*
D12*
X10795000Y-14605000D03*
X8255000Y-14605000D03*
D13*
X12045000Y-4735000D03*
D14*
X12064724Y-4445672D02*
X12025276Y-5024328D01*
D13*
X6120000Y-6255000D03*
D14*
X6525453Y-5525046D02*
X5714547Y-6984954D01*
D12*
X29845000Y-14605000D03*
X27305000Y-14605000D03*
D13*
X31095000Y-4735000D03*
D14*
X31114724Y-4445672D02*
X31075276Y-5024328D01*
D13*
X25170000Y-6255000D03*
D14*
X25575453Y-5525046D02*
X24764547Y-6984954D01*
D13*
X44220000Y-6255000D03*
D14*
X44625453Y-5525046D02*
X43814547Y-6984954D01*
D13*
X50145000Y-4735000D03*
D14*
X50164724Y-4445672D02*
X50125276Y-5024328D01*
D12*
X46355000Y-14605000D03*
X48895000Y-14605000D03*
X67945000Y-14605000D03*
X65405000Y-14605000D03*
D13*
X69195000Y-4735000D03*
D14*
X69214724Y-4445672D02*
X69175276Y-5024328D01*
D13*
X63270000Y-6255000D03*
D14*
X63675453Y-5525046D02*
X62864547Y-6984954D01*
D13*
X82320000Y-6255000D03*
D14*
X82725453Y-5525046D02*
X81914547Y-6984954D01*
D13*
X88245000Y-4735000D03*
D14*
X88264724Y-4445672D02*
X88225276Y-5024328D01*
D12*
X84455000Y-14605000D03*
X86995000Y-14605000D03*
X106045000Y-14605000D03*
X103505000Y-14605000D03*
D13*
X107295000Y-4735000D03*
D14*
X107314724Y-4445672D02*
X107275276Y-5024328D01*
D13*
X101370000Y-6255000D03*
D14*
X101775453Y-5525046D02*
X100964547Y-6984954D01*
D13*
X120420000Y-6255000D03*
D14*
X120825453Y-5525046D02*
X120014547Y-6984954D01*
D13*
X126345000Y-4735000D03*
D14*
X126364724Y-4445672D02*
X126325276Y-5024328D01*
D12*
X122555000Y-14605000D03*
X125095000Y-14605000D03*
X144145000Y-14605000D03*
X141605000Y-14605000D03*
D13*
X145395000Y-4735000D03*
D14*
X145414724Y-4445672D02*
X145375276Y-5024328D01*
D13*
X139470000Y-6255000D03*
D14*
X139875453Y-5525046D02*
X139064547Y-6984954D01*
D13*
X158520000Y-6255000D03*
D14*
X158925453Y-5525046D02*
X158114547Y-6984954D01*
D13*
X164445000Y-4735000D03*
D14*
X164464724Y-4445672D02*
X164425276Y-5024328D01*
D12*
X160655000Y-14605000D03*
X163195000Y-14605000D03*
D13*
X177570000Y-6255000D03*
D14*
X177975453Y-5525046D02*
X177164547Y-6984954D01*
D13*
X183495000Y-4735000D03*
D14*
X183514724Y-4445672D02*
X183475276Y-5024328D01*
D12*
X179705000Y-14605000D03*
X182245000Y-14605000D03*
D13*
X196620000Y-6255000D03*
D14*
X197025453Y-5525046D02*
X196214547Y-6984954D01*
D13*
X202545000Y-4735000D03*
D14*
X202564724Y-4445672D02*
X202525276Y-5024328D01*
D12*
X198755000Y-14605000D03*
X201295000Y-14605000D03*
X220345000Y-14605000D03*
X217805000Y-14605000D03*
D13*
X221595000Y-4735000D03*
D14*
X221614724Y-4445672D02*
X221575276Y-5024328D01*
D13*
X215670000Y-6255000D03*
D14*
X216075453Y-5525046D02*
X215264547Y-6984954D01*
D13*
X234720000Y-6255000D03*
D14*
X235125453Y-5525046D02*
X234314547Y-6984954D01*
D13*
X240645000Y-4735000D03*
D14*
X240664724Y-4445672D02*
X240625276Y-5024328D01*
D12*
X236855000Y-14605000D03*
X239395000Y-14605000D03*
D13*
X263295000Y-6255000D03*
D14*
X263700453Y-5525046D02*
X262889547Y-6984954D01*
D13*
X269220000Y-4735000D03*
D14*
X269239724Y-4445672D02*
X269200276Y-5024328D01*
D12*
X265430000Y-14605000D03*
X267970000Y-14605000D03*
X296545000Y-14605000D03*
X294005000Y-14605000D03*
D13*
X297795000Y-4735000D03*
D14*
X297814724Y-4445672D02*
X297775276Y-5024328D01*
D13*
X291870000Y-6255000D03*
D14*
X292275453Y-5525046D02*
X291464547Y-6984954D01*
D13*
X72795000Y-25305000D03*
D14*
X73200453Y-24575046D02*
X72389547Y-26034954D01*
D13*
X78720000Y-23785000D03*
D14*
X78739724Y-23495672D02*
X78700276Y-24074328D01*
D12*
X74930000Y-33655000D03*
X77470000Y-33655000D03*
X96520000Y-33655000D03*
X93980000Y-33655000D03*
D13*
X97770000Y-23785000D03*
D14*
X97789724Y-23495672D02*
X97750276Y-24074328D01*
D13*
X91845000Y-25305000D03*
D14*
X92250453Y-24575046D02*
X91439547Y-26034954D01*
D13*
X110895000Y-25305000D03*
D14*
X111300453Y-24575046D02*
X110489547Y-26034954D01*
D13*
X116820000Y-23785000D03*
D14*
X116839724Y-23495672D02*
X116800276Y-24074328D01*
D12*
X113030000Y-33655000D03*
X115570000Y-33655000D03*
X134620000Y-33655000D03*
X132080000Y-33655000D03*
D13*
X135870000Y-23785000D03*
D14*
X135889724Y-23495672D02*
X135850276Y-24074328D01*
D13*
X129945000Y-25305000D03*
D14*
X130350453Y-24575046D02*
X129539547Y-26034954D01*
D13*
X148995000Y-25305000D03*
D14*
X149400453Y-24575046D02*
X148589547Y-26034954D01*
D13*
X154920000Y-23785000D03*
D14*
X154939724Y-23495672D02*
X154900276Y-24074328D01*
D12*
X151130000Y-33655000D03*
X153670000Y-33655000D03*
D13*
X168045000Y-25305000D03*
D14*
X168450453Y-24575046D02*
X167639547Y-26034954D01*
D13*
X173970000Y-23785000D03*
D14*
X173989724Y-23495672D02*
X173950276Y-24074328D01*
D12*
X170180000Y-33655000D03*
X172720000Y-33655000D03*
D13*
X187095000Y-25305000D03*
D14*
X187500453Y-24575046D02*
X186689547Y-26034954D01*
D13*
X193020000Y-23785000D03*
D14*
X193039724Y-23495672D02*
X193000276Y-24074328D01*
D12*
X189230000Y-33655000D03*
X191770000Y-33655000D03*
D13*
X206145000Y-25305000D03*
D14*
X206550453Y-24575046D02*
X205739547Y-26034954D01*
D13*
X212070000Y-23785000D03*
D14*
X212089724Y-23495672D02*
X212050276Y-24074328D01*
D12*
X208280000Y-33655000D03*
X210820000Y-33655000D03*
X229870000Y-33655000D03*
X227330000Y-33655000D03*
D13*
X231120000Y-23785000D03*
D14*
X231139724Y-23495672D02*
X231100276Y-24074328D01*
D13*
X225195000Y-25305000D03*
D14*
X225600453Y-24575046D02*
X224789547Y-26034954D01*
D12*
X248920000Y-33655000D03*
X246380000Y-33655000D03*
D13*
X250170000Y-23785000D03*
D14*
X250189724Y-23495672D02*
X250150276Y-24074328D01*
D13*
X244245000Y-25305000D03*
D14*
X244650453Y-24575046D02*
X243839547Y-26034954D01*
D13*
X268057500Y-25305000D03*
D14*
X268462953Y-24575046D02*
X267652047Y-26034954D01*
D13*
X273982500Y-23785000D03*
D14*
X274002224Y-23495672D02*
X273962776Y-24074328D01*
D12*
X270192500Y-33655000D03*
X272732500Y-33655000D03*
X296545000Y-33655000D03*
X294005000Y-33655000D03*
D13*
X297795000Y-23785000D03*
D14*
X297814724Y-23495672D02*
X297775276Y-24074328D01*
D13*
X291870000Y-25305000D03*
D14*
X292275453Y-24575046D02*
X291464547Y-26034954D01*
D12*
X17938750Y-52705000D03*
X15398750Y-52705000D03*
D13*
X19188750Y-42835000D03*
D14*
X19208474Y-42545672D02*
X19169026Y-43124328D01*
D13*
X13263750Y-44355000D03*
D14*
X13669203Y-43625046D02*
X12858297Y-45084954D01*
D13*
X39457400Y-44355000D03*
D14*
X39862853Y-43625046D02*
X39051947Y-45084954D01*
D13*
X45382400Y-42835000D03*
D14*
X45402124Y-42545672D02*
X45362676Y-43124328D01*
D12*
X41592400Y-52705000D03*
X44132400Y-52705000D03*
X63182400Y-52705000D03*
X60642400Y-52705000D03*
D13*
X64432400Y-42835000D03*
D14*
X64452124Y-42545672D02*
X64412676Y-43124328D01*
D13*
X58507400Y-44355000D03*
D14*
X58912853Y-43625046D02*
X58101947Y-45084954D01*
D13*
X77557400Y-44355000D03*
D14*
X77962853Y-43625046D02*
X77151947Y-45084954D01*
D13*
X83482400Y-42835000D03*
D14*
X83502124Y-42545672D02*
X83462676Y-43124328D01*
D12*
X79692400Y-52705000D03*
X82232400Y-52705000D03*
D13*
X96607400Y-44355000D03*
D14*
X97012853Y-43625046D02*
X96201947Y-45084954D01*
D13*
X102532400Y-42835000D03*
D14*
X102552124Y-42545672D02*
X102512676Y-43124328D01*
D12*
X98742400Y-52705000D03*
X101282400Y-52705000D03*
X120332400Y-52705000D03*
X117792400Y-52705000D03*
D13*
X121582400Y-42835000D03*
D14*
X121602124Y-42545672D02*
X121562676Y-43124328D01*
D13*
X115657400Y-44355000D03*
D14*
X116062853Y-43625046D02*
X115251947Y-45084954D01*
D13*
X134707400Y-44355000D03*
D14*
X135112853Y-43625046D02*
X134301947Y-45084954D01*
D13*
X140632400Y-42835000D03*
D14*
X140652124Y-42545672D02*
X140612676Y-43124328D01*
D12*
X136842400Y-52705000D03*
X139382400Y-52705000D03*
X158432400Y-52705000D03*
X155892400Y-52705000D03*
D13*
X159682400Y-42835000D03*
D14*
X159702124Y-42545672D02*
X159662676Y-43124328D01*
D13*
X153757400Y-44355000D03*
D14*
X154162853Y-43625046D02*
X153351947Y-45084954D01*
D13*
X172807400Y-44355000D03*
D14*
X173212853Y-43625046D02*
X172401947Y-45084954D01*
D13*
X178732400Y-42835000D03*
D14*
X178752124Y-42545672D02*
X178712676Y-43124328D01*
D12*
X174942400Y-52705000D03*
X177482400Y-52705000D03*
X196532400Y-52705000D03*
X193992400Y-52705000D03*
D13*
X197782400Y-42835000D03*
D14*
X197802124Y-42545672D02*
X197762676Y-43124328D01*
D13*
X191857400Y-44355000D03*
D14*
X192262853Y-43625046D02*
X191451947Y-45084954D01*
D13*
X210907400Y-44355000D03*
D14*
X211312853Y-43625046D02*
X210501947Y-45084954D01*
D13*
X216832400Y-42835000D03*
D14*
X216852124Y-42545672D02*
X216812676Y-43124328D01*
D12*
X213042400Y-52705000D03*
X215582400Y-52705000D03*
X234632400Y-52705000D03*
X232092400Y-52705000D03*
D13*
X235882400Y-42835000D03*
D14*
X235902124Y-42545672D02*
X235862676Y-43124328D01*
D13*
X229957400Y-44355000D03*
D14*
X230362853Y-43625046D02*
X229551947Y-45084954D01*
D12*
X265588650Y-52705000D03*
X263048650Y-52705000D03*
D13*
X266838650Y-42835000D03*
D14*
X266858374Y-42545672D02*
X266818926Y-43124328D01*
D13*
X260913650Y-44355000D03*
D14*
X261319103Y-43625046D02*
X260508197Y-45084954D01*
D12*
X296545000Y-52705000D03*
X294005000Y-52705000D03*
D13*
X297795000Y-42835000D03*
D14*
X297814724Y-42545672D02*
X297775276Y-43124328D01*
D13*
X291870000Y-44355000D03*
D14*
X292275453Y-43625046D02*
X291464547Y-45084954D01*
D13*
X18026250Y-63405000D03*
D14*
X18431703Y-62675046D02*
X17620797Y-64134954D01*
D13*
X23951250Y-61885000D03*
D14*
X23970974Y-61595672D02*
X23931526Y-62174328D01*
D12*
X20161250Y-71755000D03*
X22701250Y-71755000D03*
X53657500Y-71755000D03*
X51117500Y-71755000D03*
D13*
X54907500Y-61885000D03*
D14*
X54927224Y-61595672D02*
X54887776Y-62174328D01*
D13*
X48982500Y-63405000D03*
D14*
X49387953Y-62675046D02*
X48577047Y-64134954D01*
D13*
X68032500Y-63405000D03*
D14*
X68437953Y-62675046D02*
X67627047Y-64134954D01*
D13*
X73957500Y-61885000D03*
D14*
X73977224Y-61595672D02*
X73937776Y-62174328D01*
D12*
X70167500Y-71755000D03*
X72707500Y-71755000D03*
X91757500Y-71755000D03*
X89217500Y-71755000D03*
D13*
X93007500Y-61885000D03*
D14*
X93027224Y-61595672D02*
X92987776Y-62174328D01*
D13*
X87082500Y-63405000D03*
D14*
X87487953Y-62675046D02*
X86677047Y-64134954D01*
D13*
X106132500Y-63405000D03*
D14*
X106537953Y-62675046D02*
X105727047Y-64134954D01*
D13*
X112057500Y-61885000D03*
D14*
X112077224Y-61595672D02*
X112037776Y-62174328D01*
D12*
X108267500Y-71755000D03*
X110807500Y-71755000D03*
X129857500Y-71755000D03*
X127317500Y-71755000D03*
D13*
X131107500Y-61885000D03*
D14*
X131127224Y-61595672D02*
X131087776Y-62174328D01*
D13*
X125182500Y-63405000D03*
D14*
X125587953Y-62675046D02*
X124777047Y-64134954D01*
D13*
X144232500Y-63405000D03*
D14*
X144637953Y-62675046D02*
X143827047Y-64134954D01*
D13*
X150157500Y-61885000D03*
D14*
X150177224Y-61595672D02*
X150137776Y-62174328D01*
D12*
X146367500Y-71755000D03*
X148907500Y-71755000D03*
X167957500Y-71755000D03*
X165417500Y-71755000D03*
D13*
X169207500Y-61885000D03*
D14*
X169227224Y-61595672D02*
X169187776Y-62174328D01*
D13*
X163282500Y-63405000D03*
D14*
X163687953Y-62675046D02*
X162877047Y-64134954D01*
D13*
X182332500Y-63405000D03*
D14*
X182737953Y-62675046D02*
X181927047Y-64134954D01*
D13*
X188257500Y-61885000D03*
D14*
X188277224Y-61595672D02*
X188237776Y-62174328D01*
D12*
X184467500Y-71755000D03*
X187007500Y-71755000D03*
X206057500Y-71755000D03*
X203517500Y-71755000D03*
D13*
X207307500Y-61885000D03*
D14*
X207327224Y-61595672D02*
X207287776Y-62174328D01*
D13*
X201382500Y-63405000D03*
D14*
X201787953Y-62675046D02*
X200977047Y-64134954D01*
D13*
X220432500Y-63405000D03*
D14*
X220837953Y-62675046D02*
X220027047Y-64134954D01*
D13*
X226357500Y-61885000D03*
D14*
X226377224Y-61595672D02*
X226337776Y-62174328D01*
D12*
X222567500Y-71755000D03*
X225107500Y-71755000D03*
D13*
X246626250Y-63405000D03*
D14*
X247031703Y-62675046D02*
X246220797Y-64134954D01*
D13*
X252551250Y-61885000D03*
D14*
X252570974Y-61595672D02*
X252531526Y-62174328D01*
D12*
X248761250Y-71755000D03*
X251301250Y-71755000D03*
X277495000Y-71755000D03*
X274955000Y-71755000D03*
D13*
X278745000Y-61885000D03*
D14*
X278764724Y-61595672D02*
X278725276Y-62174328D01*
D13*
X272820000Y-63405000D03*
D14*
X273225453Y-62675046D02*
X272414547Y-64134954D01*
D13*
X291870000Y-63405000D03*
D14*
X292275453Y-62675046D02*
X291464547Y-64134954D01*
D13*
X297795000Y-61885000D03*
D14*
X297814724Y-61595672D02*
X297775276Y-62174328D01*
D12*
X294005000Y-71755000D03*
X296545000Y-71755000D03*
D20*
X151375000Y-80750000D03*
X149625000Y-80750000D03*
D12*
X13176250Y-90805000D03*
X10636250Y-90805000D03*
D13*
X14426250Y-80935000D03*
D14*
X14445974Y-80645672D02*
X14406526Y-81224328D01*
D13*
X8501250Y-82455000D03*
D14*
X8906703Y-81725046D02*
X8095797Y-83184954D01*
D13*
X32313750Y-82455000D03*
D14*
X32719203Y-81725046D02*
X31908297Y-83184954D01*
D13*
X38238750Y-80935000D03*
D14*
X38258474Y-80645672D02*
X38219026Y-81224328D01*
D12*
X34448750Y-90805000D03*
X36988750Y-90805000D03*
D13*
X56126250Y-82455000D03*
D14*
X56531703Y-81725046D02*
X55720797Y-83184954D01*
D13*
X62051250Y-80935000D03*
D14*
X62070974Y-80645672D02*
X62031526Y-81224328D01*
D12*
X58261250Y-90805000D03*
X60801250Y-90805000D03*
D13*
X127563750Y-82455000D03*
D14*
X127969203Y-81725046D02*
X127158297Y-83184954D01*
D13*
X133488750Y-80935000D03*
D14*
X133508474Y-80645672D02*
X133469026Y-81224328D01*
D12*
X129698750Y-90805000D03*
X132238750Y-90805000D03*
X206057500Y-90805000D03*
X203517500Y-90805000D03*
D13*
X207307500Y-80935000D03*
D14*
X207327224Y-80645672D02*
X207287776Y-81224328D01*
D13*
X201382500Y-82455000D03*
D14*
X201787953Y-81725046D02*
X200977047Y-83184954D01*
D13*
X253770000Y-82455000D03*
D14*
X254175453Y-81725046D02*
X253364547Y-83184954D01*
D13*
X259695000Y-80935000D03*
D14*
X259714724Y-80645672D02*
X259675276Y-81224328D01*
D12*
X255905000Y-90805000D03*
X258445000Y-90805000D03*
X277495000Y-90805000D03*
X274955000Y-90805000D03*
D13*
X278745000Y-80935000D03*
D14*
X278764724Y-80645672D02*
X278725276Y-81224328D01*
D13*
X272820000Y-82455000D03*
D14*
X273225453Y-81725046D02*
X272414547Y-83184954D01*
D20*
X218825000Y-94650000D03*
X220575000Y-94650000D03*
X242475000Y-94850000D03*
X240725000Y-94850000D03*
D21*
X239424193Y-67582068D03*
X236154193Y-67582068D03*
D13*
X215670000Y-82455000D03*
D14*
X216075453Y-81725046D02*
X215264547Y-83184954D01*
D13*
X221595000Y-80935000D03*
D14*
X221614724Y-80645672D02*
X221575276Y-81224328D01*
D12*
X217805000Y-90805000D03*
X220345000Y-90805000D03*
D13*
X229957500Y-82455000D03*
D14*
X230362953Y-81725046D02*
X229552047Y-83184954D01*
D13*
X235882500Y-80935000D03*
D14*
X235902224Y-80645672D02*
X235862776Y-81224328D01*
D12*
X232092500Y-90805000D03*
X234632500Y-90805000D03*
D13*
X291870000Y-82455000D03*
D14*
X292275453Y-81725046D02*
X291464547Y-83184954D01*
D13*
X297795000Y-80935000D03*
D14*
X297814724Y-80645672D02*
X297775276Y-81224328D01*
D12*
X294005000Y-90805000D03*
X296545000Y-90805000D03*
D20*
X188993750Y-76200000D03*
X187243750Y-76200000D03*
X206293750Y-76200000D03*
X208043750Y-76200000D03*
D13*
X196620000Y-82455000D03*
D14*
X197025453Y-81725046D02*
X196214547Y-83184954D01*
D13*
X202545000Y-80935000D03*
D14*
X202564724Y-80645672D02*
X202525276Y-81224328D01*
D12*
X198755000Y-90805000D03*
X201295000Y-90805000D03*
X239395000Y-90805000D03*
X236855000Y-90805000D03*
D13*
X240645000Y-80935000D03*
D14*
X240664724Y-80645672D02*
X240625276Y-81224328D01*
D13*
X234720000Y-82455000D03*
D14*
X235125453Y-81725046D02*
X234314547Y-83184954D01*
D22*
X109500000Y-78100000D03*
X86650000Y-76200000D03*
X105800000Y-77900000D03*
X110000000Y-31500000D03*
X106000000Y-31500000D03*
X115500000Y-50500000D03*
X110500000Y-50500000D03*
X134620000Y-69850000D03*
X120650000Y-69850000D03*
X85450000Y-74850000D03*
X86100000Y-75500000D03*
X106800000Y-77800000D03*
X115500000Y-77600000D03*
X115900000Y-78400000D03*
X116300000Y-79200000D03*
X45750000Y-19500000D03*
X44000000Y-17000000D03*
X124000000Y-74000000D03*
X117500000Y-74000000D03*
X84750000Y-74000000D03*
X82250000Y-74000000D03*
X113500000Y-55500000D03*
X107500000Y-55500000D03*
X108000000Y-36250000D03*
X103000000Y-36250000D03*
X96500000Y-16750000D03*
X94000000Y-16750000D03*
X170000000Y-91500000D03*
X194750000Y-91500000D03*
D11*
X231000000Y-68500000D02*
X229957500Y-69542500D01*
X84950000Y-88650000D02*
X84900000Y-88700000D01*
X125182500Y-63405000D02*
X123652615Y-63405000D01*
X123652615Y-63405000D02*
X109500000Y-77557615D01*
X109500000Y-77557615D02*
X109500000Y-78100000D01*
X115657400Y-44355000D02*
X116567399Y-45264999D01*
X116567399Y-45264999D02*
X116567399Y-54789899D01*
X116567399Y-54789899D02*
X124192516Y-62415016D01*
X124192516Y-62415016D02*
X125182500Y-63405000D01*
X110895000Y-25305000D02*
X110895000Y-39592600D01*
X110895000Y-39592600D02*
X115657400Y-44355000D01*
X101370000Y-6255000D02*
X101370000Y-15780000D01*
X101370000Y-15780000D02*
X110895000Y-25305000D01*
X68032500Y-63405000D02*
X68032500Y-70548750D01*
X68032500Y-70548750D02*
X56126250Y-82455000D01*
X58507400Y-44355000D02*
X58507400Y-53879900D01*
X58507400Y-53879900D02*
X68032500Y-63405000D01*
X53745000Y-25305000D02*
X53745000Y-39592600D01*
X53745000Y-39592600D02*
X58507400Y-44355000D01*
X44220000Y-6255000D02*
X44220000Y-15780000D01*
X44220000Y-15780000D02*
X53745000Y-25305000D01*
X91900000Y-76250502D02*
X98104498Y-82455000D01*
X87082500Y-71433002D02*
X91900000Y-76250502D01*
X98104498Y-82455000D02*
X126033865Y-82455000D01*
X87082500Y-63405000D02*
X87082500Y-71433002D01*
X126033865Y-82455000D02*
X127563750Y-82455000D01*
X77557400Y-44355000D02*
X77557400Y-53879900D01*
X77557400Y-53879900D02*
X87082500Y-63405000D01*
X72795000Y-25305000D02*
X72795000Y-39592600D01*
X72795000Y-39592600D02*
X77557400Y-44355000D01*
X63270000Y-6255000D02*
X63270000Y-15780000D01*
X63270000Y-15780000D02*
X72795000Y-25305000D01*
X106000000Y-31500000D02*
X110000000Y-31500000D01*
X110500000Y-50500000D02*
X115500000Y-50500000D01*
X120650000Y-69850000D02*
X134620000Y-69850000D01*
X10882500Y-25305000D02*
X6120000Y-20542500D01*
X6120000Y-20542500D02*
X6120000Y-6255000D01*
X13263750Y-44355000D02*
X10882500Y-41973750D01*
X10882500Y-41973750D02*
X10882500Y-25305000D01*
X18026250Y-63405000D02*
X13263750Y-58642500D01*
X13263750Y-58642500D02*
X13263750Y-44355000D01*
X8501250Y-82455000D02*
X18026250Y-72930000D01*
X18026250Y-72930000D02*
X18026250Y-63405000D01*
X32313750Y-82455000D02*
X33843635Y-82455000D01*
X33843635Y-82455000D02*
X48982500Y-67316135D01*
X48982500Y-65414178D02*
X48982500Y-63405000D01*
X48982500Y-67316135D02*
X48982500Y-65414178D01*
X39457400Y-44355000D02*
X39457400Y-53879900D01*
X39457400Y-53879900D02*
X48982500Y-63405000D01*
X39457400Y-44355000D02*
X34695000Y-39592600D01*
X34695000Y-39592600D02*
X34695000Y-25305000D01*
X34695000Y-25305000D02*
X33165115Y-25305000D01*
X33165115Y-25305000D02*
X25170000Y-17309885D01*
X25170000Y-8264178D02*
X25170000Y-6255000D01*
X25170000Y-17309885D02*
X25170000Y-8264178D01*
X106132500Y-63405000D02*
X106132500Y-77132500D01*
X106132500Y-77132500D02*
X106800000Y-77800000D01*
X96607400Y-44355000D02*
X96607400Y-53879900D01*
X96607400Y-53879900D02*
X106132500Y-63405000D01*
X91845000Y-25305000D02*
X91845000Y-39592600D01*
X91845000Y-39592600D02*
X96607400Y-44355000D01*
X82320000Y-6255000D02*
X82320000Y-15780000D01*
X82320000Y-15780000D02*
X91845000Y-25305000D01*
X144232500Y-63405000D02*
X142702615Y-63405000D01*
X142702615Y-63405000D02*
X128507615Y-77600000D01*
X128507615Y-77600000D02*
X115500000Y-77600000D01*
X134707400Y-44355000D02*
X134707400Y-53879900D01*
X134707400Y-53879900D02*
X144232500Y-63405000D01*
X129945000Y-25305000D02*
X129945000Y-39592600D01*
X129945000Y-39592600D02*
X134707400Y-44355000D01*
X120420000Y-6255000D02*
X120420000Y-15780000D01*
X120420000Y-15780000D02*
X129945000Y-25305000D01*
X161752615Y-63405000D02*
X151600000Y-73557615D01*
X128694016Y-78050009D02*
X133186410Y-73557615D01*
X133186410Y-73557615D02*
X151600000Y-73557615D01*
X115900000Y-78400000D02*
X116249990Y-78050010D01*
X116249990Y-78050010D02*
X128694016Y-78050009D01*
X163282500Y-63405000D02*
X161752615Y-63405000D01*
X153757400Y-44355000D02*
X154667399Y-45264999D01*
X154667399Y-45264999D02*
X154667399Y-54789899D01*
X154667399Y-54789899D02*
X162292516Y-62415016D01*
X162292516Y-62415016D02*
X163282500Y-63405000D01*
X148995000Y-25305000D02*
X148995000Y-39592600D01*
X148995000Y-39592600D02*
X153757400Y-44355000D01*
X139470000Y-6255000D02*
X139470000Y-15780000D01*
X139470000Y-15780000D02*
X148995000Y-25305000D01*
X133372810Y-74007625D02*
X128880415Y-78500018D01*
X128880415Y-78500018D02*
X116999982Y-78500018D01*
X116999982Y-78500018D02*
X116300000Y-79200000D01*
X151786400Y-74007625D02*
X133372810Y-74007625D01*
X182332500Y-63405000D02*
X180802615Y-63405000D01*
X180802615Y-63405000D02*
X170199990Y-74007625D01*
X170199990Y-74007625D02*
X151786400Y-74007625D01*
X172807400Y-44355000D02*
X172807400Y-53879900D01*
X172807400Y-53879900D02*
X182332500Y-63405000D01*
X168045000Y-25305000D02*
X168045000Y-39592600D01*
X168045000Y-39592600D02*
X172807400Y-44355000D01*
X158520000Y-6255000D02*
X158520000Y-15780000D01*
X158520000Y-15780000D02*
X168045000Y-25305000D01*
X201382500Y-63405000D02*
X201382500Y-65414178D01*
X201382500Y-65414178D02*
X201382500Y-82455000D01*
X187095000Y-25305000D02*
X187095000Y-39592600D01*
X187095000Y-39592600D02*
X191857400Y-44355000D01*
X177570000Y-15780000D02*
X187095000Y-25305000D01*
X191857400Y-44355000D02*
X191857400Y-53879900D01*
X177570000Y-6255000D02*
X177570000Y-15780000D01*
X191857400Y-53879900D02*
X201382500Y-63405000D01*
X246626250Y-63405000D02*
X246626250Y-75200000D01*
X246626250Y-75200000D02*
X246626250Y-75311250D01*
X253770000Y-82455000D02*
X252240115Y-82455000D01*
X252240115Y-82455000D02*
X246626250Y-76841135D01*
X246626250Y-76841135D02*
X246626250Y-75200000D01*
X221595000Y-80935000D02*
X221595000Y-79300578D01*
X221595000Y-79300578D02*
X220432500Y-78138078D01*
X220432500Y-78138078D02*
X220432500Y-65414178D01*
X220432500Y-65414178D02*
X220432500Y-63405000D01*
X210907400Y-53879900D02*
X220432500Y-63405000D01*
X210907400Y-44355000D02*
X210907400Y-53879900D01*
X206145000Y-25305000D02*
X206145000Y-39592600D01*
X206145000Y-39592600D02*
X210907400Y-44355000D01*
X196620000Y-6255000D02*
X196620000Y-15780000D01*
X196620000Y-15780000D02*
X206145000Y-25305000D01*
X225195000Y-25305000D02*
X225195000Y-39592600D01*
X225195000Y-39592600D02*
X229957400Y-44355000D01*
X215670000Y-6255000D02*
X215670000Y-15780000D01*
X215670000Y-15780000D02*
X225195000Y-25305000D01*
X244245000Y-61023750D02*
X246626250Y-63405000D01*
X244245000Y-25305000D02*
X244245000Y-61023750D01*
X234720000Y-6255000D02*
X234720000Y-15780000D01*
X234720000Y-15780000D02*
X244245000Y-25305000D01*
X260913700Y-44355000D02*
X260913700Y-53028585D01*
X260913700Y-53028585D02*
X271290115Y-63405000D01*
X268057500Y-37211200D02*
X260913700Y-44355000D01*
X271290115Y-63405000D02*
X272820000Y-63405000D01*
X268057500Y-25305000D02*
X268057500Y-37211200D01*
X263295000Y-6255000D02*
X263295000Y-20542500D01*
X263295000Y-20542500D02*
X268057500Y-25305000D01*
X291870000Y-63405000D02*
X291870000Y-71433002D01*
X291870000Y-44355000D02*
X291870000Y-63405000D01*
X291870000Y-25305000D02*
X291870000Y-44355000D01*
X291870000Y-6255000D02*
X291870000Y-9589002D01*
X291870000Y-9589002D02*
X291870000Y-25305000D01*
X44000000Y-17000000D02*
X45750000Y-18750000D01*
X45750000Y-18750000D02*
X45750000Y-19500000D01*
X117500000Y-74000000D02*
X124000000Y-74000000D01*
X82250000Y-74000000D02*
X84750000Y-74000000D01*
X107500000Y-55500000D02*
X113500000Y-55500000D01*
X103000000Y-36250000D02*
X108000000Y-36250000D01*
X94000000Y-16750000D02*
X96500000Y-16750000D01*
X170000000Y-91500000D02*
X194750000Y-91500000D01*
M02*
